<?xml version="1.0" encoding="UTF-8"?><svg id="uuid-e544b68d-475b-4b50-a84a-bdac31273d1e" xmlns="http://www.w3.org/2000/svg" viewBox="0 0 256 256"><defs><style>.uuid-b30841d0-8963-474c-8667-b944aa47f348{fill:#231f20;}</style></defs><g><path class="uuid-b30841d0-8963-474c-8667-b944aa47f348" d="M181.44,123.29h13.73c.89,0,1.65-.24,2.3-.71,.64-.47,1.13-1.1,1.45-1.91,.33-.8,.5-1.69,.5-2.66,0-.34,0-.59-.02-.75-.08-.96-.29-1.73-.63-2.31-.34-.58-.85-1.01-1.56-1.28-.71-.28-1.64-.41-2.8-.41h-10.69c-.52,0-.92-.04-1.21-.13-.29-.09-.52-.26-.68-.51-.16-.25-.27-.64-.34-1.16l-.05-.27h-.51v4.7h.51l.05-.29c.07-.51,.18-.89,.33-1.12,.15-.24,.37-.39,.66-.46,.28-.07,.7-.11,1.25-.11h11.19c2.39,0,3.59,1.1,3.59,3.31-.06,.87-.35,1.55-.85,2.03-.5,.49-1.13,.73-1.88,.73h-14.32v-.91h-.55v4.95h.55v-.73Z"/><path class="uuid-b30841d0-8963-474c-8667-b944aa47f348" d="M98.77,17.78l2.8-.46,1.09,3.23,1.02-.17-3.75-10.63-.95,.16-1.57,11.51,.94-.16,.43-3.48Zm.59-4.61c.09-.72,.15-1.45,.17-2.17,.16,.57,.38,1.31,.68,2.22l.97,2.95-2.27,.38,.44-3.37Z"/><path class="uuid-b30841d0-8963-474c-8667-b944aa47f348" d="M93.82,121.29c0-.71-.25-.93-.93-.61-.05,.35-.05,.5,.08,.83q.4-.05,.86-.23Z"/><path class="uuid-b30841d0-8963-474c-8667-b944aa47f348" d="M198.06,110.93c.53,.38,.8,.89,.8,1.52v.18h.48v-4.74h-.48v.22c0,.41-.15,.75-.44,1.03-.29,.27-.66,.46-1.1,.47-.32,0-.73-.1-1.22-.27l-2.53-.84v-6.21l5.29-2.09v.7h.48v-4.58h-.48l-.07,.57-17.86,6.66v1.22l15.08,5.14c.83,.3,1.51,.64,2.05,1.02Zm-5.27-2.78l-7.58-2.48,7.6-3.01-.02,5.49Z"/><path class="uuid-b30841d0-8963-474c-8667-b944aa47f348" d="M198.8,172.96l-17.86,7.01v1.29l15.08,5.42c.83,.31,1.51,.67,2.05,1.07,.53,.4,.8,.94,.8,1.6v.18h.48v-4.99h-.48v.23c0,.43-.15,.79-.44,1.08-.29,.29-.66,.49-1.1,.5-.32,0-.73-.11-1.22-.28l-2.53-.88v-6.54l5.29-2.2v.74h.48v-4.82h-.48l-.07,.6Zm-6,11.86l-7.58-2.61,7.6-3.17-.02,5.78Z"/><path class="uuid-b30841d0-8963-474c-8667-b944aa47f348" d="M107.04,19.87c.69-.06,1.24-.3,1.65-.71,.41-.41,.73-1.06,.95-1.97,.23-.91,.31-1.99,.25-3.25-.05-.98-.17-1.82-.37-2.52-.2-.7-.45-1.28-.76-1.72-.32-.45-.67-.73-1.07-.88-.31-.11-.75-.14-1.32-.09l-2.32,.22,.57,11.14,2.43-.23Zm-.64-9.81c.52-.05,.91,0,1.15,.12,.37,.18,.68,.58,.94,1.21,.26,.62,.42,1.5,.48,2.63,.05,1.06,0,1.97-.18,2.75-.13,.58-.34,1.02-.62,1.3-.29,.28-.72,.45-1.3,.5l-1.43,.14-.44-8.51,1.41-.13Z"/><path class="uuid-b30841d0-8963-474c-8667-b944aa47f348" d="M182.03,201.56l.71-.54-.32-.37-3.88,2.68,.32,.36,1.5-.69c8.99,4.42-2.82,17.65-8.63-.06-1.13-3.44,4.16-5.23,4.28-4.69l.56,.63,.35-.3-1.99-2.33-.35,.3,.47,.67c-3.15,.55-5.67,3.61-5.3,6.45,2.12,16.26,22.02,10.97,12.29-2.12Z"/><path class="uuid-b30841d0-8963-474c-8667-b944aa47f348" d="M95.36,117.11c0,.35,.15,.58,.38,.8,.1-.02,.2-.05,.33-.05,.35-.56-.13-1.13-.7-.75Zm.45,.55c-.08-.15-.13-.3-.18-.43h.25c-.02,.13-.05,.28-.08,.43Z"/><path class="uuid-b30841d0-8963-474c-8667-b944aa47f348" d="M110.29,109.15c-1.03,0-1.56,.4-1.94,1.36,.05,.65,.13,2.04,.8,2.37,2.12-.25,3.05-2.44,1.13-3.73Zm-.58,.91c.2,.05,.43,.1,.65,.18,.28,.78,.03,1.41-.7,1.74-.93-.53-.68-1.43,.05-1.91Z"/><path class="uuid-b30841d0-8963-474c-8667-b944aa47f348" d="M93.22,108.77c.53-.02,.98,.03,1.41-.3,.08-1.16-.23-2.42-1.41-2.85-.86,0-1.56,.08-1.99,.88,.1,1.43,.53,2.01,1.99,2.27Zm.35-1.06q-.23,.15-.78,.23c-.5-.38-.63-.53-.63-1.13,.68-.68,1.41,.15,1.41,.91Z"/><path class="uuid-b30841d0-8963-474c-8667-b944aa47f348" d="M119.75,19.03c.98-.02,1.77-.61,2.38-1.77,.54-1.06,.8-2.41,.77-4.07-.01-1.2-.17-2.23-.47-3.1-.29-.86-.69-1.52-1.19-1.96-.5-.45-1.04-.66-1.64-.65-.93,.02-1.68,.56-2.29,1.59-.6,1.04-.89,2.51-.87,4.41,.02,1.5,.31,2.78,.88,3.84,.62,1.16,1.43,1.73,2.43,1.7Zm-1.77-9.09c.43-.77,.97-1.17,1.65-1.18,.42,0,.81,.15,1.17,.49,.36,.34,.63,.8,.81,1.37,.24,.75,.37,1.6,.38,2.56,.02,1.49-.19,2.62-.62,3.4-.43,.77-.98,1.17-1.63,1.18-.64,.01-1.19-.35-1.65-1.1-.46-.75-.7-1.81-.71-3.18-.02-1.6,.18-2.78,.61-3.55Z"/><path class="uuid-b30841d0-8963-474c-8667-b944aa47f348" d="M97.33,116.4c.5-.05,.7-.07,1.11-.38,1.23-2.29-2.92-2.74-1.84-.23,.23,.2,.48,.4,.73,.6Zm.45-1.64c.2,.2,.15,.48,.15,.76q-.15,.15-.43,.23-.38-.4-.48-.7c.18-.33,.4-.28,.76-.28Z"/><path class="uuid-b30841d0-8963-474c-8667-b944aa47f348" d="M177.95,193.3l12.47,6.86c.81,.44,1.6,.63,2.38,.55,.77-.08,1.48-.37,2.1-.88,.63-.51,1.14-1.18,1.54-2,.14-.29,.23-.5,.28-.64,.32-.84,.44-1.6,.38-2.26-.07-.66-.37-1.28-.89-1.86-.53-.59-1.32-1.17-2.38-1.75l-9.7-5.34c-.47-.26-.82-.5-1.05-.72-.23-.22-.36-.47-.41-.77-.04-.3,.03-.19,.17-.67l.07-.25-.46-.25-1.64,2.96,.46,.25,.16-.22c.28-.39,.24-.14,.48-.26,.24-.12,.5-.14,.78-.06,.29,.08,.68,.26,1.18,.53l10.16,5.59c2.17,1.2,2.81,2.72,1.91,4.58-.41,.7-.95,1.13-1.6,1.29-.65,.16-1.32,.05-2.01-.32l-13.01-7.15,.37-.83-.5-.27-1.99,4.19,.5,.28,.27-.58Z"/><path class="uuid-b30841d0-8963-474c-8667-b944aa47f348" d="M93.63,22.23c.68-.13,1.22-.42,1.6-.86,.39-.44,.67-1.13,.85-2.05,.18-.92,.21-2.01,.08-3.27-.1-.97-.27-1.8-.5-2.48-.23-.68-.52-1.23-.85-1.64-.34-.41-.71-.67-1.11-.77-.31-.08-.75-.07-1.32,.04l-2.31,.44,1.14,11.06,2.42-.46Zm-1.14-9.73c.52-.1,.9-.09,1.16,0,.38,.15,.7,.52,1,1.12,.29,.6,.49,1.46,.61,2.58,.11,1.05,.09,1.97-.04,2.76-.1,.59-.29,1.05-.55,1.36-.27,.31-.7,.52-1.27,.63l-1.42,.27-.87-8.45,1.4-.27Z"/><path class="uuid-b30841d0-8963-474c-8667-b944aa47f348" d="M156.86,141.36c-1.34,.43-3.12,.81-1.81,2.34,1.76,1.51,3.27,1.46,5.24,.35,.05,.07-.38,1.21-.73,2.72,0,1.06,.48,1.86,.6,2.85-.05,.25-.28,.78-.08,.98h.38c.15-.22,.3-.45,.48-.65,1.56-.25,2.26-.65,3.42-1.74,.3-.41,.61-.81,.91-1.21,.45,2.44,.88,3.02,3.25,4.08,.33-.02,.68-.05,1.03-.07,.73-.53,.08-2.14-.08-2.85,1.36,1.08,3.47,.55,4.89-.15,2.52-2.17-5.84-5.79-6.98-6.42q-.18-.53-.53-1.21c1.13-.41,1.86-1.11,1.11-2.24,.38-.45,1.49-.28,1.49-1.13-.45,0-.68,.28-1.06,.5-.81,.2-1.08,.28-1.79-.15-.03-.66-.05-1.31-.08-1.94h-.3c-.25,.5-.15,.91-.13,1.48q-.2,.03-.45-.07c-1.26,0-1.69,1.41-1.06,2.34-.33,.08-.63,.18-.93,.28-2.42-1.38-6.04-3.9-8.97-3.27-1.08,1.74,.53,4.38,2.17,5.19Zm-.08-.88c2.07-.43,3.25-.48,5.34-.12-1.46,.25-2.87,.5-4.36,.55q-.83-.3-.98-.43Zm-1.41,2.17c.81-.8,4.23-1.31,5.29-1.16-.38,.25-.73,.53-1.08,.8-1.31,.41-2.62,.81-3.9,1.24-.3-.3-.3-.48-.3-.88Zm2.22,1.71q-1.01-.3-1.13-.43c1.41-.53,2.92-.83,4.21-1.61,.78-.78,.98-1.01,2.07-1.16v.18c-1.84,1.18-2.97,2.69-5.14,3.02Zm4.79,4.46c-.78-.41-1.51-.88-2.14-1.51q0-.7,.1-1.08c1.06,1.06,1.91,1.46,3.35,1.81-.45,.35-.76,.71-1.31,.78Zm1.69-1.87c-.3-.12-4.71-2.01-2.92-2.89,.86,1.28,2.06,2.32,3.75,2.17-.05,.53-.4,.68-.83,.73Zm1.18-1.76c-.81-.25-3.5-1.39-3.5-2.29,.56-.45,.86-.4,1.59-.43,.48,.58,.98,.78,1.69,1.01,.18,.58,.33,1.05,.33,1.66-.05,0-.08,.03-.1,.05Zm6.37,3.02c-.6-.3-1.13-1.91-1.34-2.67,.91,.25,3.2,1.31,3.45,2.12-.7,.23-1.38,.43-2.11,.56Zm2.52-1.16c-.88-.58-1.74-1.16-2.59-1.74q-1.51-.48-1.89-.68c-.7-.73-1.41-1.44-2.12-2.14,.93,0,7,3.73,6.6,4.56Zm-4.48-1.44c.18,.48,1.06,2.09,.96,2.44-1.99-1.06-2.44-2.97-3.35-4.94q1.79,1.74,2.39,2.49Zm-2.04,.08c.33,.75,2.12,3.7,1.49,4.66-.25,0-.5,.03-.75,.05-.28-.15-.56-.28-.81-.4-.55-1.66-.33-2.57,.08-4.31Zm-.55-1.16c-.05,.91-.23,1.79-.45,2.67-.05,.63-.08,1.29-.1,1.94-.45-.91-.5-1.61-.56-2.62q.3-3,.38-3.12h.18c.18,.38,.35,.75,.55,1.13Zm-.93-6.67q.33,.1,1.01,.5v.23c-.66,.28-.23,.71-.13,1.16h-.61c-.63-.3-1.28-.63-1.51-1.36,.61,0,.91,.08,1.23-.53Zm.23,4.94c-.48,.15-.96,.2-1.46,.23q-.58-.3-1.06-.68c-2.69-3.7,4.78-2.97,2.52,.45Zm-11.13-6.02c1.64-.2,3.07,.75,4.56,1.41q3.1,1.56,3.1,1.64h-.5c-.88-.18-1.74-.33-2.59-.48-1.49-1.03-2.97-1.66-4.71-2.22,.05-.13,.1-.25,.15-.35Zm3.53,2.64q-.56,.18-2.74,.58c-.56-.65-.78-1.46-1.01-2.27,1.18,.38,2.85,.78,3.75,1.69Z"/><path class="uuid-b30841d0-8963-474c-8667-b944aa47f348" d="M95.92,113.26c.03-.25-.03-.4-.1-.58-.5,0-1.08,.22-.68,.81q.56-.08,.78-.23Zm-.35-.35s.08,.05,.13,.08c-.08,.17-.25,.23-.45,.25q.13-.23,.33-.33Z"/><path class="uuid-b30841d0-8963-474c-8667-b944aa47f348" d="M155.78,161.03c0-1.29-1.08-1.31-2.22-1.79,1.84-1.21,2.82-2.52,2.65-4.86-.25-.15-.48-.3-.71-.43-2.9,0-5.94,1.79-8.54,2.95q-.33-.15-1.28-.35c.55-1.11,.12-2.14-1.13-2.27,.2-.63,.3-1.08,.23-1.74h-.3c-.1,.73-.25,1.33-.45,2.04-1.11,.43-1.56,.25-2.34-.71h-.23c-.1,.6,.63,1.03,1.08,1.26-.15,.08-.3,.15-.43,.25-.78,1.36,.25,2.07,1.36,2.27-.15,.28-.3,.58-.45,.88-1.01,.46-9.32,3.48-7.71,5.92,1.86,1.11,3.15,1.41,5.21,.68-.35,.68-1.08,2.39-.13,2.87,2.85-.2,3.95-1.31,4.33-4.06,.73,1.86,2.37,2.9,4.18,3.4,.2,.25,.4,.5,.63,.76,.15-.05,.3-.1,.45-.13,0-.23-.15-.63-.15-1.04,1.01-1.69,.76-3.15,.23-5.01,.03-.03,.05-.05,.08-.08,2.14,1.36,3.88,.93,5.64-.83Zm-.83-.5v.5c-.45,.4-.81,.58-1.39,.78q-.75-.3-1.56-.81-1.58-1.76-1.56-1.84c1.51,.28,3.15,.6,4.51,1.36Zm-3.4-1.81c-1.13-.28-2.24-.56-3.35-.81,1.06-.15,2.12-.3,3.2-.43,.86,.2,1.74,.4,2.62,.63-.38,.58-1.84,.58-2.47,.61Zm4.13-3.35c-.2,.75-.48,1.46-.86,2.17h-.66q-1.94-.45-2.24-.61c1.11-.83,2.44-1.21,3.75-1.56Zm-.38-.73v.15c-1.59,.58-2.9,1.06-4.28,2.02-1.08,.15-2.17,.3-3.25,.48,2.37-1.11,4.84-2.65,7.53-2.65Zm-7.98,3.55c-.13,1.34-1.06,1.89-2.39,2.04-1.69-.65-1.74-1.69-.43-2.82,1.19-.43,2.27-.48,2.82,.78Zm-4.23-1.16c-.08-.05-.13-.1-.18-.13,.55-.45,.6-.71,.33-1.39,.38-.15,.78-.28,1.18-.4,.05,.78,.1,.75,.81,.98-.63,.76-1.16,.86-2.14,.93Zm-5.21,4.81q2.59-1.34,4.96-2.42,.02,.08-2.32,2.27-1.13,.33-1.94,.66-2.11,1.36-2.72,1.66c0-1.19,1.11-1.59,2.01-2.17Zm1.03,3.12c-.3,0-.58,.03-.86,.05-.5-.18-1.01-.35-1.51-.5,0-.78,2.72-1.76,3.53-2.02-.4,.81-.78,1.64-1.16,2.47Zm.81-.2c.33-.75,.65-1.51,.98-2.24,.7-.73,1.41-1.46,2.14-2.19-.73,1.51-1.51,3.63-3.12,4.43Zm1.36,2.69c-1.49-.58,1.39-4.71,1.74-5.34,0,.43,.03,.86,.05,1.31-.38,1.31-1.01,2.59-1.28,3.93-.18,.02-.35,.05-.5,.1Zm1.16-.43c.53-1.41,1.03-2.77,1.31-4.25-.08-.56-.15-1.08-.2-1.61,.18-.3,.35-.58,.53-.86,.15,2.14,.88,5.67-1.64,6.72Zm2.44-4.78c0-2.31,1.21-1.03,2.24-2.24,.58,0,1.16,.18,1.64,.53v.23c-1.23,.81-2.39,1.36-3.88,1.48Zm.45,1.16c1.59,.1,3.07-.35,4.03-1.66h.18c.61,1.56-2.47,2.27-3.57,2.44-.33-.15-.45-.48-.63-.78Zm4.79,1.64c-.86,.53-1.76,.88-2.8,.98-.25-.23-.58-.43-.68-.76,.76-.03,1.41-.2,2.09-.48,1.08-.83,1.21-1.03,1.39-1.06v1.31Zm-2.09-6.15c-.03-.08-.05-.13-.05-.18,.45,.05,.91,.12,1.39,.2,1.16,.98,2.02,2.37,3.35,3.12-.02,.03-.02,.08-.02,.13-1.94-.4-3.25-1.96-4.66-3.27Z"/><polygon class="uuid-b30841d0-8963-474c-8667-b944aa47f348" points="61.91 33.23 61.56 32 58.46 33.62 55.85 24.43 55.02 24.86 57.97 35.29 61.91 33.23"/><path class="uuid-b30841d0-8963-474c-8667-b944aa47f348" d="M198.8,140.1l-17.86,6.66v1.22l15.08,5.15c.83,.3,1.51,.64,2.05,1.02,.53,.38,.8,.89,.8,1.52v.18h.48v-4.75h-.48v.22c0,.41-.15,.75-.44,1.03-.29,.27-.66,.47-1.1,.47-.32,0-.73-.1-1.22-.26l-2.53-.84v-6.21l5.29-2.09v.7h.48v-4.58h-.48l-.07,.57Zm-6,11.26l-7.58-2.48,7.6-3.01-.02,5.49Z"/><path class="uuid-b30841d0-8963-474c-8667-b944aa47f348" d="M182.46,159.4c-.28-.05-.49-.19-.64-.39-.15-.21-.25,.14-.33-.3l-.05-.25h-.51v2.64h.51l.05-.25c.17-.93,1.37-.68,2.23-.68h7.91l-10.69,5.73v4.38h.51v-.09c0-.21,.03-.44,.2-.55l.05-.03h14.92s1.55,.03,1.55,.03c.32,.07,.56-.04,.66,.53l.05,.27h.48v-2.5h-.48l-.05,.25c-.08,.41-.08,.44-.36,.44l-4.91-.02h-10.36l14.86-8.38h1.31v-.75h-15.63c-.57,0-.99-.03-1.26-.08Z"/><polygon class="uuid-b30841d0-8963-474c-8667-b944aa47f348" points="83 24.96 82.78 23.67 78.74 24.94 78.11 21.24 81.75 20.1 81.53 18.82 77.89 19.96 77.33 16.63 81.21 15.41 81 14.13 76.24 15.62 78.09 26.5 83 24.96"/><path class="uuid-b30841d0-8963-474c-8667-b944aa47f348" d="M63.33,32.55l-.11-3.53,2.66-1.24,1.56,2.85,.97-.45-5.29-9.34-.91,.42,.23,11.7,.9-.42Zm.6-8.39l1.4,2.61-2.16,1.01-.08-3.42c-.02-.73-.08-1.46-.17-2.17,.24,.51,.58,1.17,1.01,1.98Z"/><path class="uuid-b30841d0-8963-474c-8667-b944aa47f348" d="M85.22,24.16l-.64-4.88,1.02-.25c.29-.07,.53-.07,.71,0,.17,.07,.37,.24,.58,.51,.22,.27,.55,.81,1.02,1.62l1.18,2.08,1.1-.26-1.55-2.72c-.26-.47-.56-.88-.87-1.23-.16-.18-.37-.33-.65-.47,.59-.29,1.01-.73,1.27-1.31,.25-.59,.32-1.3,.21-2.13-.08-.63-.24-1.16-.49-1.59-.25-.43-.54-.72-.86-.85-.32-.13-.79-.13-1.41,.02l-2.94,.7,1.43,11,.88-.21Zm.83-10.28c.48-.11,.85-.05,1.13,.22,.28,.26,.45,.67,.53,1.22,.05,.38,.03,.74-.05,1.06-.09,.32-.23,.57-.43,.76-.2,.18-.5,.32-.91,.42l-1.89,.45-.47-3.63,2.1-.5Z"/><path class="uuid-b30841d0-8963-474c-8667-b944aa47f348" d="M74.56,27.81l.42-11.71-.88,.32-.22,8.47c-.01,.64-.01,1.27,0,1.9-.21-.54-.44-1.08-.69-1.65l-3.24-7.22-.93,.34,4.66,9.87,.88-.32Z"/><path class="uuid-b30841d0-8963-474c-8667-b944aa47f348" d="M194.59,126.56h-13.15v-.76h-.51v4.32h.51v-.67h13.4c7.09,2.56-.92,9.27-3.68,5.88,1.89,7.62,12.67,.13,6.62-8.04-.44-.6-1.72-.73-3.18-.73Z"/><polygon class="uuid-b30841d0-8963-474c-8667-b944aa47f348" points="169.81 23.15 166.53 22.36 167.79 12.67 166.92 12.46 165.49 23.45 169.64 24.44 169.81 23.15"/><path class="uuid-b30841d0-8963-474c-8667-b944aa47f348" d="M193.51,29.1c-.25,1.11-.21,2.1,.1,2.95,.32,.85,.87,1.45,1.67,1.8,.51,.22,.97,.29,1.39,.19,.43-.1,.8-.36,1.13-.76,.33-.41,.57-.91,.72-1.52,.15-.61,.18-1.18,.08-1.72-.09-.53-.3-1.01-.63-1.46-.22-.28-.61-.69-1.19-1.2-.59-.53-.95-.95-1.08-1.27-.13-.32-.14-.69-.04-1.12,.11-.47,.33-.79,.65-.97,.32-.18,.72-.16,1.2,.05,.48,.21,.8,.53,.98,.98,.18,.45,.21,1.03,.09,1.74l.84,.26c.14-.66,.17-1.26,.09-1.83-.09-.56-.27-1.05-.57-1.47-.29-.42-.68-.73-1.16-.94-.69-.31-1.31-.27-1.85,.08-.54,.37-.91,.98-1.12,1.84-.12,.48-.15,.95-.1,1.39,.05,.44,.18,.84,.38,1.2,.19,.36,.57,.79,1.12,1.3,.61,.56,1,.98,1.18,1.22,.17,.24,.27,.5,.32,.78,.04,.27,.03,.57-.05,.88-.13,.54-.37,.91-.73,1.13-.36,.21-.79,.2-1.3-.02-.35-.15-.64-.39-.87-.71-.24-.32-.39-.68-.46-1.07-.08-.39-.06-.89,.04-1.49l-.83-.23Z"/><polygon class="uuid-b30841d0-8963-474c-8667-b944aa47f348" points="191.84 30.72 187.88 29.08 188.7 25.44 192.27 26.93 192.56 25.67 188.98 24.19 189.72 20.92 193.53 22.5 193.82 21.24 189.15 19.3 186.74 29.98 191.56 31.98 191.84 30.72"/><path class="uuid-b30841d0-8963-474c-8667-b944aa47f348" d="M57.81,164.23c.75,.35,1.55,.53,2.4,.53,2.1,0,3.89-1.02,5.37-3.04,.69-.95,2.11-5.13,2.81-5.8,.66-.62,1.48-.89,2.34-.8,2.18,.21,2.2,3.59,1.32,5.02-.21,.34-.51,.64-.89,.9-.38,.26-.53,.45-1,.56h-.73v.37h3.85v-.37h-.79c.38-.92,.61-1.57,.68-2.56,.06-.81,.17-3.28-.33-3.86-.48-.57-.89-1.25-1.63-1.55-.74-.3-1.73-.48-2.55-.26-3.5,.94-3.16,3.3-4.95,5.67-1.71,2.61-1.87,3.29-4.99,3.23-.68-.01-1.15-.44-1.51-.83-1.39-1.49-.25-7.64,1-7.86h.87v-.39h-3.81v.39h.92c-.38,.58-1.08,5.19-1.24,5.71-.16,.55,.67,3.06,1.06,3.56,.45,.56,1.05,1.02,1.79,1.38Z"/><polygon class="uuid-b30841d0-8963-474c-8667-b944aa47f348" points="55.54 165.41 55.54 171.01 56.01 171.01 56.01 169.54 72.69 169.54 72.69 171.01 73.18 171.01 73.18 165.41 72.69 165.41 72.69 166.85 56.01 166.85 56.01 165.41 55.54 165.41"/><path class="uuid-b30841d0-8963-474c-8667-b944aa47f348" d="M57.93,134.89c-.3,.1-1.2-.11-1.2-.47v-7.03s9.3,.04,9.3,.04l.06,3.91c.03,.59-.23,.9-.77,.93v.57h2.5v-.52c-.97,.06-1.01-.2-1.05-1.49l-.1-3.4h6.1c.35,2.28-.07,3.53-.09,5.68,0,.85-.49,1.46-1.44,1.83v.55h2.68v-.55h-.42v-11.92h-.48v.79h-16.69v-.79h-.46v11.87h-.46v.57h2.53v-.57Z"/><path class="uuid-b30841d0-8963-474c-8667-b944aa47f348" d="M181.7,23.06l1,.34c.29,.1,.51,.23,.65,.39,.14,.16,.27,.42,.38,.79,.12,.36,.27,1.05,.44,2.04l.45,2.55,1.09,.37-.6-3.34c-.1-.57-.25-1.11-.43-1.61-.09-.25-.24-.51-.45-.79,.63,.06,1.15-.1,1.55-.5,.41-.4,.68-1.01,.83-1.83,.11-.62,.13-1.2,.03-1.73-.1-.53-.28-.95-.53-1.26-.25-.29-.68-.55-1.29-.76l-2.9-.98-1.99,10.83,.86,.29,.89-4.81Zm.89-4.82l2.07,.7c.47,.16,.79,.43,.97,.82,.18,.39,.22,.86,.11,1.41-.07,.38-.19,.69-.37,.94-.18,.25-.38,.39-.62,.46-.24,.06-.56,.02-.96-.11l-1.86-.63,.66-3.58Z"/><path class="uuid-b30841d0-8963-474c-8667-b944aa47f348" d="M56.92,149.74c.15-.07,.34-.12,.56-.15,.22-.03,.48-.05,.78-.06,.3-.01,.59-.02,.86-.03,.72,0,1.33-.06,1.83-.17,.49-.11,.88-.35,1.14-.71,.37-.5,.64-1.12,.81-1.88l.14-.45,.41,1.02c.59,1.43,1.98,2.14,4.19,2.14h.46c.74-.04,1.42-.22,2.04-.55,.62-.33,1.16-.75,1.62-1.28,.45-.53,.8-1.13,1.05-1.81,.25-.68,.37-1.37,.37-2.09v-5.92h-.49v1.58h-16.69v-1.58h-.46v6.13h.51v-1.58h6.3v2.63c0,.44-.1,.76-.31,.96-.32,.32-.67,.51-1.06,.57-.39,.05-1.07,.11-2.05,.16-.98,.06-1.71,.19-2.2,.41-.5,.22-.84,.63-1.05,1.23-.03,.1-.07,.3-.14,.59,.04,.9,.46,1.67,1.25,2.33l.51,.43,.3-.35-.48-.43c-.13-.08-.26-.21-.38-.37-.12-.16-.19-.32-.22-.46,.03,0,.05-.02,.05-.04,.07-.12,.18-.22,.33-.29Zm5.89-7.38h9.88v.53c0,2.1-1.52,3.2-4.56,3.27-2.11,0-3.53-.32-4.25-.97-.72-.65-1.08-1.45-1.08-2.4v-.43Z"/><path class="uuid-b30841d0-8963-474c-8667-b944aa47f348" d="M141.17,109.18c-1.79,1.79-1.71,2.95-1.01,5.34-1.76,1.64-2.37,2.77-.83,4.91,0,.53-.65,1.23-.93,1.69-.38,1.16-.15,1.91-.15,3.07-.78,1.03,.23,1.61,1.03,1.99,.75,1.21,1.74,1.54,3.12,1.89,2.01-.08,3.57-.18,4.86-1.89,1.41-.02,2.82-.02,4.26-.02,1.46,2.57,6.5,2.6,7.93,0h4.33c1.18,2.77,6.62,2.37,7.96-.05,.83-.65,.83-.88,.75-1.96,.2-.96,.18-1.69,.08-2.64-.18-.53-.86-1.77-.93-2.07,.96-1.81,.13-3.1-.93-4.66,1.26-2.06,.18-3.78-.98-5.62,.73-2.24-.03-3.75-1.28-5.59,.75-2.29-.56-3.8-1.99-5.47-.78-2.27-1.74-3.47-3.75-4.73-1.64-2.47-3.22-3.78-6.2-4.35-3.27,0-4.91,.7-7.36,2.85-.43,.53-.83,1.06-1.23,1.61q-.65,.48-1.54,1.39c-.91,1.36-1.08,1.84-1.08,3.5-1.64,1.74-2.07,2.67-2.27,5.04-1.66,1.36-2.27,2.29-2.27,4.46q.4,1.06,.4,1.34Zm12.06,14.28h-13.67c0-1.34,.12-2.22,1.13-3.22,4.26-.02,8.51-.05,12.79-.05-.43,1.01-.23,2.19-.25,3.27Zm-10.25,3.7c-.88-.18-1.89-.28-2.57-.96h5.64c-.98,.66-1.91,.83-3.07,.96Zm15.29-.86c-1.03,.5-1.86,.68-3.02,.86-.98-.18-1.79-.33-2.57-.96,1.86-.03,3.73-.05,5.59-.05v.15Zm9.24,.86c-.88-.18-1.89-.28-2.57-.96h5.54c-1.01,.71-1.71,.81-2.97,.96Zm4.06-2.09c-10.83,.03-21.63,.05-32.44,.08-.05-.1-.1-.18-.15-.25,10.88-.05,21.76-.07,32.64-.1-.03,.08-.05,.17-.05,.27Zm-.28-1.61h-12.19c-.03-.96,.08-2.34-.3-3.22h11.59c.68,1.31,.86,1.79,.91,3.22Zm-.86-4.74c-9.95,.03-19.87,.08-29.79,.13-1.11-1.54-.98-2.14,.55-3.32h28.26c.78,1.06,1.56,1.84,.98,3.2Zm-9.49-25.56c-3.7,.03-7.38,.05-11.06,.08,3.15-3.63,7.96-3.93,11.06-.08Zm-12.24,1.44c4.41,0,8.84,0,13.27,.03,.86,.5,1.56,.96,2.19,1.69q.7,1.33,.68,1.41c-6.04,0-12.06,.02-18.08,.05,0-1.56,.75-2.22,1.94-3.17Zm-2.29,4.56h19.12c.81,1.03,2.14,2.24,1.66,3.7-7.58,.03-15.14,.08-22.69,.13,.1-1.74,.63-2.55,1.91-3.83Zm-2.24,5.19c7.68,0,15.36,0,23.04,.02,1.06,1.11,1.81,2.64,1.23,4.18-8.64,0-17.25,.02-25.86,.05-.83-1.99-.2-3.12,1.59-4.26Zm-1.71,5.64h26.09c.91,1.41,1.76,2.42,.88,4.03-9.32,0-18.64,.02-27.96,.05-.58-1.74-.6-2.95,.98-4.08Z"/><path class="uuid-b30841d0-8963-474c-8667-b944aa47f348" d="M96,209.68c-3.25-2.55-5.8-2.59-7.66-.1,.84,.84,1.68,1.68,2.52,2.52,.63-2.32,2.48-2.99,7.03,0,2.83,2.52,5.66,3.08,8.49,1.68-.42-.98-.84-1.96-1.26-2.93-3.04,2.25-6.08,.81-9.12-1.15Z"/><path class="uuid-b30841d0-8963-474c-8667-b944aa47f348" d="M78.34,197.4l-3.85-4.63-.37,.31,.91,1.12-12.91,10.57-.91-1.12-.36,.29,3.83,4.68c.59,.72,1.34,1.25,2.23,1.59,.9,.34,1.87,.48,2.92,.43,1.05-.05,2.08-.27,3.12-.68,1.03-.41,1.98-.96,2.84-1.67,.86-.7,1.58-1.53,2.18-2.5,.59-.97,1.01-1.97,1.26-3,.25-1.04,.3-2.02,.16-2.97-.14-.94-.49-1.75-1.03-2.41Zm.1,2.88c-.27,1-.82,2-1.65,3.01-.83,1.01-1.77,1.95-2.84,2.82-.82,.67-1.62,1.27-2.42,1.79-.79,.53-1.58,.93-2.37,1.23-.79,.3-1.54,.4-2.26,.3-.72-.09-1.33-.45-1.84-1.08l-1.22-1.49,12.95-10.59,1.16,1.42c.6,.74,.77,1.61,.49,2.6Z"/><path class="uuid-b30841d0-8963-474c-8667-b944aa47f348" d="M121.76,209.54c-.65-.84-1.38-1.51-2.19-2-.82-.49-1.66-.73-2.52-.73l-6.02,.04v.48h1.44v16.68h-1.44v.46h6.04c.93,0,1.81-.24,2.64-.72,.83-.48,1.55-1.14,2.18-1.98,.63-.84,1.11-1.79,1.45-2.84,.34-1.05,.51-2.14,.51-3.25s-.19-2.19-.56-3.27c-.37-1.07-.88-2.03-1.53-2.88Zm-.91,9.18c-.09,.95-.28,1.81-.55,2.62-.27,.8-.67,1.44-1.19,1.94-.53,.5-1.2,.74-2.01,.74h-1.93v-16.73h1.83c.95,0,1.73,.42,2.32,1.27,.6,.84,1.03,1.9,1.28,3.18,.26,1.28,.38,2.61,.38,3.98,0,1.05-.05,2.05-.15,3Z"/><path class="uuid-b30841d0-8963-474c-8667-b944aa47f348" d="M126.84,17.63c-.37,0-.7-.1-.99-.31-.3-.2-.52-.49-.68-.83-.16-.33-.26-.82-.3-1.43l-.84,.12c.02,1.16,.28,2.08,.77,2.77,.5,.68,1.16,1.01,2,1.01,.53,0,.99-.13,1.37-.41,.39-.28,.68-.68,.9-1.2,.22-.53,.33-1.11,.33-1.75s-.1-1.2-.32-1.67c-.21-.46-.52-.83-.93-1.12-.27-.18-.73-.4-1.4-.65-.68-.25-1.12-.5-1.32-.75-.2-.25-.29-.6-.29-1.05,0-.49,.13-.89,.4-1.19,.27-.3,.65-.46,1.16-.46s.88,.17,1.16,.52c.28,.35,.43,.89,.48,1.61l.86-.1c-.02-.69-.13-1.27-.33-1.78-.21-.5-.5-.89-.88-1.15-.37-.27-.82-.41-1.32-.41-.73,0-1.31,.29-1.74,.86-.42,.58-.64,1.32-.64,2.21,0,.51,.07,.96,.22,1.36,.15,.4,.36,.73,.63,.98,.26,.26,.72,.51,1.36,.77,.71,.28,1.18,.51,1.4,.66,.21,.16,.37,.36,.48,.61,.1,.24,.15,.53,.15,.86,0,.57-.14,1.02-.44,1.38-.29,.35-.71,.52-1.24,.52Z"/><path class="uuid-b30841d0-8963-474c-8667-b944aa47f348" d="M138.76,224.94h.59v-3.42h-.59v.13c0,.97-.37,1.61-1.13,1.92-.76,.3-1.74,.46-2.95,.48-.18-.02-.41-.02-.7-.02h-1.67v-9.77h1.77c.7,0,1.27,.1,1.71,.3,.44,.2,.66,.34,.66,.99h.59v-3.64h-.54v.07c0,.68-.23,.84-.69,1.03-.46,.19-1.16,.28-2.08,.28h-1.42v-5.94h1.67c1.34,0,2.48,.18,3.42,.55,.94,.37,1.41,1.11,1.41,2.25h0s.56,0,.56,0v-3.71h-.56v.42h-12.22v.48h1.99v16.68h-1.99v.46h12.17v.46Z"/><path class="uuid-b30841d0-8963-474c-8667-b944aa47f348" d="M55.54,178.87c0,.93,.24,1.81,.72,2.64,.48,.83,1.15,1.55,1.99,2.18,.84,.62,1.79,1.11,2.84,1.45,1.05,.34,2.14,.51,3.25,.51s2.19-.18,3.26-.55c1.07-.37,2.03-.88,2.88-1.53,.85-.65,1.51-1.38,2-2.19,.49-.82,.73-1.66,.73-2.53l-.04-6.02h-.49v1.44h-16.69v-1.44h-.46v6.04Zm.46-1.89h16.73v1.83c0,.95-.42,1.73-1.27,2.33-.84,.6-1.9,1.03-3.18,1.28-1.28,.26-2.61,.38-3.98,.38-1.06,0-2.06-.05-3-.14-.95-.1-1.82-.28-2.62-.55-.8-.27-1.45-.67-1.94-1.19-.49-.53-.74-1.2-.74-2.01v-1.93Z"/><path class="uuid-b30841d0-8963-474c-8667-b944aa47f348" d="M176.06,26.32c.58,.18,1.05,.21,1.43,.1,.37-.13,.7-.41,.98-.84,.28-.43,.48-.98,.59-1.64,.11-.66,.1-1.26-.05-1.77-.15-.53-.39-.94-.74-1.25,.33-.15,.62-.4,.84-.75,.23-.35,.39-.78,.47-1.27,.09-.54,.09-1.06-.03-1.57-.11-.5-.29-.9-.55-1.21-.26-.3-.63-.53-1.13-.69l-2.47-.77-1.85,10.88,2.51,.79Zm0-10.11l1.32,.41c.48,.15,.8,.31,.96,.46,.17,.16,.28,.38,.35,.68,.07,.29,.07,.64,0,1.03-.07,.42-.19,.73-.35,.94-.16,.21-.37,.33-.61,.36-.17,.02-.44-.02-.81-.14l-1.42-.44,.56-3.29Zm.74,5.05c.45,.14,.77,.3,.95,.51,.19,.2,.32,.45,.39,.78,.08,.32,.08,.69,.01,1.1-.08,.45-.2,.79-.38,1.05-.18,.25-.41,.41-.67,.45-.19,.04-.46,0-.82-.11l-1.64-.51,.64-3.74,1.52,.48Z"/><path class="uuid-b30841d0-8963-474c-8667-b944aa47f348" d="M158.05,179.89s.05,.05,.1,.1q-.53,.88-1.21,2.39c-.05,.96,.05,1.74,.2,2.67q-.28,.6-.35,1.11c.3,.3,.68-.18,.88-.38,.8,0,1.61-.18,2.42-.28,.86-.6,1.71-1.16,2.47-1.91,0,.6,0,1.21,.03,1.82,.55,1.66,1.46,2.24,3,2.95,1.44-.18,1.03-1.61,.88-2.82,.13,0,.33,.23,.88,.6,1.34,.43,4.94,.88,4.66-1.33-1.26-2.52-4.26-4.38-6.37-6.12-.1-.43-.2-.86-.28-1.26,1.03-.33,2.02-.88,1.41-2.12,.63-.12,1.11-.2,1.61-.53v-.33q-.25,0-.88,.33-.86,.08-1.13,.17c-.25-.23-.5-.43-.73-.63-.02-.76-.02-1.13,.25-1.79-.1-.15-.1-.2-.33-.2-.3,.53-.38,.91-.45,1.51-.18-.1-.35-.18-.53-.25-1.23,0-1.59,1.13-1.31,2.19-.33,.03-.63,.05-.93,.1-1.41-1.29-6.47-5.99-8.54-4.63-.78,1.96-.05,3.93,1.46,5.29-1.06,.18-1.64,.2-2.47,.76-.02,.23-.02,.48-.02,.73,1.38,2.24,2.9,2.54,5.29,1.86Zm-.96-.33c-.45,.03-.91,.08-1.33,.13-.45-.2-.91-.4-1.34-.58v-.18q3.02-.3,3.78-.45c.83-.33,1.99-1.64,2.92-1.01-1.34,.68-2.62,1.56-4.03,2.09Zm.76-2.97c-.88-.2-1.84-.38-2.6-.88,.91-.05,1.84-.08,2.77-.1,.83,.28,1.66,.55,2.52,.86q-.43,.08-2.69,.13Zm1.69,8.31c-.98-.71-2.39-1.54-1.71-2.92,.75,1.21,1.74,1.81,3.02,2.32-.43,.28-.81,.53-1.31,.6Zm2.01-1.51c-1.03-.56-3.78-2.02-2.59-3.45,.78,1.71,1.66,2.34,3.4,2.92-.23,.33-.43,.45-.81,.53Zm1.26-1.59c-1.23-.66-2.27-1.51-3-2.7,0-.6,1.23-.38,1.59-.38,.43,.6,.86,.96,1.51,1.33q.1,.35,.15,1.74h-.25Zm.68,4.1h-.1c-.38-2.09,.18-3.63,.81-5.67,.05-.03,.12-.05,.2-.05,.1,.35,.2,.7,.3,1.08,0,1.59-1.16,2.97-1.21,4.63Zm1.76,1.69c-.33-.23-.66-.45-.98-.66-.33-1.64,.18-2.82,.83-4.23,.35,1.48,.93,3.05,.83,4.58-.18,.28-.35,.28-.68,.3Zm3.35-1.69c-.5-.5-.76-2.12-.83-2.85,1.06,.55,2.62,1.56,3.1,2.67q-.75,.13-2.26,.18Zm2.64-1.28c.03,.18,.08,.35,.13,.53h-.18c-1.16-1.26-2.27-2.27-3.8-3-.23-.33-1.89-2.42-1.76-2.7,1.81,1.49,4.26,3.12,5.62,5.16Zm-4.43-2.24q.3,.73,.96,3.2h-.18c-1.51-1.36-2.11-3.32-2.29-5.36,.5,.71,1.01,1.44,1.51,2.17Zm-1.76-7.71c.33,.28,.65,.55,1.01,.83-.2,.13-.4,.25-.6,.4,0,.28,.03,.55,.05,.86-.68-.23-1.89-.86-1.71-1.74,.48,.33,.96,.13,1.26-.35Zm-.08,3.1c0,1.34,.05,1.76-1.41,2.01-1.56-.63-1.81-1.13-1.91-2.69,.91-1.51,2.67-.53,3.33,.68Zm-10.68-5.92c1.51-.86,6.2,3.45,7.2,4.23-.03,.03-.03,.05-.03,.07q-2.77-.93-3.15-1.13c-1.26-1.36-2.42-2.04-4.03-2.97v-.2Zm.45,3.22c-.45-.91-.55-1.44-.6-2.42,1.06,.58,2.67,1.28,3.3,2.34-.91,.03-1.81,.05-2.7,.08Zm4.33,2.24c-.61,.23-1.21,.48-1.81,.73q-2.95,.33-3.45,.48c-1.69-2.09,4.61-1.26,5.26-1.21Z"/><path class="uuid-b30841d0-8963-474c-8667-b944aa47f348" d="M144.18,16.49l2.81,.26,.61,3.45,1.02,.1-2.18-11.4-.96-.09-3.16,10.89,.95,.09,.92-3.31Zm1.23-4.37c.19-.68,.35-1.38,.47-2.09,.07,.6,.19,1.38,.36,2.36l.54,3.15-2.28-.22,.91-3.2Z"/><path class="uuid-b30841d0-8963-474c-8667-b944aa47f348" d="M90.95,119.35c.33-.05,.63-.1,.86-.33,0-.68-.4-.86-.98-.48-.03,.3-.05,.55,.13,.81Z"/><path class="uuid-b30841d0-8963-474c-8667-b944aa47f348" d="M90.45,116.98c.68-.25,1.01-1.31,.45-1.86-.35,0-.65-.03-.93,.15-.56,.88-.5,1.24,.48,1.71Zm0-1.16s0,.13,.02,.2c-.08,.03-.15,.07-.2,.13q.05-.2,.18-.33Z"/><path class="uuid-b30841d0-8963-474c-8667-b944aa47f348" d="M154.82,212.93c4.54-2.99,6.4-2.32,7.03,0,.84-.84,1.68-1.68,2.52-2.51-1.85-2.48-4.4-2.45-7.65,.1-3.04,1.96-6.08,3.4-9.12,1.15-.42,.98-.84,1.96-1.26,2.94,2.83,1.4,5.66,.84,8.49-1.68Z"/><path class="uuid-b30841d0-8963-474c-8667-b944aa47f348" d="M94.76,113.51c-1.11-.5-2.39-.1-1.54,1.31,.78-.1,1.97-.15,1.54-1.31Zm-.96,.4c.08,.02,.18,.05,.28,.08-.13,.05-.25,.1-.35,.15q-.05-.12,.08-.23Z"/><polygon class="uuid-b30841d0-8963-474c-8667-b944aa47f348" points="137.14 13.94 140.64 14.19 140.44 19.45 141.33 19.51 141.76 8.36 140.87 8.3 140.69 12.87 137.18 12.62 137.36 8.05 136.47 7.98 136.04 19.13 136.93 19.2 137.14 13.94"/><path class="uuid-b30841d0-8963-474c-8667-b944aa47f348" d="M92.62,117.49c.96-.08,2.39-.6,1.21-1.79-1.03,0-2.85,.98-1.21,1.79Zm.2-.96q.2-.1,.68-.08v.23q-.2,.1-.7,.15c0-.1,0-.2,.03-.3Z"/><polygon class="uuid-b30841d0-8963-474c-8667-b944aa47f348" points="56.01 104.31 72.69 104.31 72.69 105.77 73.18 105.77 73.18 100.18 72.69 100.18 72.69 101.62 56.01 101.62 56.01 100.18 55.54 100.18 55.54 105.77 56.01 105.77 56.01 104.31"/><path class="uuid-b30841d0-8963-474c-8667-b944aa47f348" d="M150.87,15.67l1.03,.17c.3,.05,.53,.14,.68,.28,.15,.13,.3,.37,.45,.72,.15,.34,.35,.99,.62,1.95l.68,2.46,1.11,.18-.9-3.21c-.15-.55-.34-1.06-.57-1.52-.11-.23-.28-.46-.51-.71,.63-.04,1.13-.29,1.49-.76,.37-.47,.59-1.12,.66-1.96,.06-.63,.02-1.21-.13-1.72-.15-.51-.36-.9-.64-1.16-.28-.25-.72-.44-1.35-.54l-2.97-.49-1,11.08,.89,.15,.44-4.92Zm.45-4.93l2.12,.35c.48,.08,.83,.3,1.04,.66,.21,.36,.29,.82,.24,1.38-.04,.39-.13,.72-.28,.99-.15,.27-.34,.45-.57,.56-.23,.1-.55,.11-.97,.04l-1.91-.32,.33-3.66Z"/><path class="uuid-b30841d0-8963-474c-8667-b944aa47f348" d="M157.83,18.39l2.79,.53,.43,3.5,1.01,.19-1.59-11.58-.95-.18-3.71,10.57,.94,.18,1.08-3.21Zm1.45-4.24c.23-.67,.42-1.34,.58-2.04,.04,.6,.12,1.4,.23,2.38l.38,3.19-2.26-.43,1.07-3.11Z"/><path class="uuid-b30841d0-8963-474c-8667-b944aa47f348" d="M73.36,189.82l-14.51-.74c-.8-.05-1.49-.19-2.07-.41-.58-.22-.97-.64-1.16-1.24l-.05-.17-.41,.13,1.5,4.58,.41-.14-.07-.21c-.13-.4-.11-.77,.05-1.11,.16-.35,.35-.33,.73-.46,.28-.09,.66-.08,1.13-.09h.29s2.25,6.48,2.25,6.48l-2.2,2.02-.52-1.6-.41,.13,1.93,5.88,.41-.13-.44-1.34,13.26-11.27-.1-.32Zm-11.38,6.27l-1.92-6.01,8.68,.29-6.76,5.72Z"/><path class="uuid-b30841d0-8963-474c-8667-b944aa47f348" d="M72.01,119.96c.46,.38,.68,.95,.68,1.72v.17h.49v-4.54h-.49v.22c0,.84-.37,1.26-1.1,1.26-.24,0-.74-.1-1.52-.28l-9.84-3.15,12.46-3.87v1.63h.49v-6h-.49v1.37l-17.15,5.39v.51l14.44,4.59c.9,.29,1.57,.63,2.03,1Z"/><path class="uuid-b30841d0-8963-474c-8667-b944aa47f348" d="M89.19,125.04c1.84-.08,3.68-.15,5.54-.2,5.29-.53,10.6-.38,15.89-.78,.76-.55,.56-1.71-.38-1.84-.86-.86-.96-1.79-2.22-2.19,1.46-2.54,2.77-4.36,5.11-6.2,1.13-1.13,1.94-2.17,.68-3.43-1.13-.4-1.51-1.16-2.11-2.19-1.01-.66-3.68-.43-4.73-.23-.96-2.39-3.53,.53-4.71,1.48h-.23c-1.74-1.94-4.33-2.22-6.35-3.65-.68-1.89-1.89-2.42-3.93-2.07q-1.08,.83-1.79,1.26c-.2-1.61-1.71-1.06-2.85-.73-1.06,1.79-3.22,2.9-4.63,4.41-.68,3.02,2.42,3.8,4.23,5.39,.96,1.39,.15,1.84-.91,3.1-.98,1.41-2.14,2.75-2.74,4.36-1.23,.83-1.89,.93-1.89,2.42,1.49,.98,3.95,.73,5.64,.78,.78,.1,1.56,.2,2.37,.3Zm-5.77-15.97c1.54-1.13,3.25-2.49,4.38-4.03,.38-.08,.68-.2,1.08-.15-.28,.15-.55,.33-.83,.5v.53c.4,.4,1.74,.18,2.29,.03,.63-.45,1.26-.91,1.91-1.33,1.44,0,2.12,.15,2.5,1.56,1.06,1.24,3.4,1.86,4.88,2.55,.43,.28,1.06,.61,1.29,1.06q-1.84,.28-3.53,.68c-.18-1.31-1.86-1.81-2.39-.5,.1,.65,.25,.88,.3,1.16-.58,.2-1.16,.4-1.71,.63q-2.8,1.51-3.07,1.56c-.4-.68-2.44-1.21-3.22-1.48-2.01-.35-4.08-.15-3.88-2.74Zm13.17,1.56q-.18,.18-.35,.23c-.28-.23-.43-.38-.58-.7,.05-.1,.13-.18,.2-.25h.55c.23,.23,.18,.4,.18,.73Zm-9.97,2.12s0-.08,.03-.1c1.06,.35,2.09,.73,3.07,1.21v.23c-.53,.45-1.03,.93-1.54,1.41,.05-1.21-.58-2.14-1.56-2.75Zm-2.57,11.03c-.63-.13-1.23-.23-1.84-.33,.63-.96,1.76-1.06,2.04-2.34q2.29-3.32,2.37-3.3c-.83,1.99-1.23,3.83-1.46,5.97h-1.11Zm2.77-4.03c.38-.05,.45-.15,.7-.4-.1-.55-.18-.83,.05-1.36,.63,.43,1.23,1.01,1.89,.18,0-.75-.35-1.13-1.03-1.41,3.27-4.46,9.19-5.42,14.25-6.35,.88-.78,2.14-2.12,3.27-2.39-.13,.88-.48,1.46,.68,1.34,.53-1.08,3.37-.51,4.38-.35,.65,1.18,1.21,1.81,2.42,2.34,.53,1.06-2.04,2.65-2.64,3.12-1.76,1.99-2.97,3.83-4.13,6.17,.05,.13,.1,.25,.15,.38,1.79,.1,1.71,.43,2.74,1.89,.1,.08,.23,.15,.35,.25-1.21,.08-2.42,.15-3.63,.23-.08-.17-.15-.35-.23-.5h-.18c-2.69-3.07-7.23-4.23-11.16-4.46,.33-.58-.03-.78-.48-.78q-.15,.18-.25,.48c.08,.13,.18,.25,.28,.4-1.74,.43-2.74,1.08-3.63,2.67,0,1.64,1.46-.5,1.61-.73,1.61-.96,2.42-1.01,4.31-1.01q1.76,.35,2.72,.66c-1.03,0-4.36-.4-4.16,1.28,.23,.03,.45,.05,.68,.08,2.32-.81,6.25-.38,8.24,.93-3.2-.28-6.47-.5-9.62,.28-.18,.18-.15,.38-.15,.65q.18,.13,.78,.15c2.85-.45,5.47-.48,8.31-.15-4.86,.15-9.75,.6-14.61,.81-.88-.1-1.71-.25-2.54-.5,0-1.36,.28-2.57,.61-3.88Zm1.54-2.12c.02-.05,.08-.1,.13-.13,.1,.1,.2,.2,.33,.33-.1,.03-.2,.05-.3,.08-.05-.1-.1-.2-.15-.28Zm6.22,.33c-.03,.07-.03,.18-.03,.28-.05-.08-.08-.15-.1-.23-.08,.02-.15,.05-.2,.07-.02-.07-.02-.12-.02-.18,.1,0,.23,.03,.35,.05Z"/><polygon class="uuid-b30841d0-8963-474c-8667-b944aa47f348" points="173.63 14.12 172.75 13.87 171.04 24.79 171.91 25.04 173.63 14.12"/></g><path class="uuid-b30841d0-8963-474c-8667-b944aa47f348" d="M72.69,74.81h-13.15c-.85,0-1.58,.19-2.2,.57-.61,.38-1.08,.89-1.39,1.54-.32,.65-.47,1.37-.47,2.15,0,.27,0,.47,.02,.61,.08,.77,.28,1.4,.6,1.87,.32,.47,.82,.81,1.49,1.04,.68,.22,1.57,.33,2.69,.33h10.23c.5,0,.88,.04,1.16,.1,.28,.07,.49,.21,.65,.41,.15,.21,.26,.52,.33,.94l.04,.22h.49v-3.75h-.53v.18c-.06,.41-.17,.71-.32,.9-.15,.19-.36,.32-.63,.37-.27,.06-.67,.09-1.2,.09h-10.71c-2.29,0-3.43-.89-3.43-2.67,.06-.7,.33-1.25,.82-1.65,.48-.39,1.08-.59,1.8-.59h13.71v1.44h.53v-5.36h-.53v1.25Z"/><path class="uuid-b30841d0-8963-474c-8667-b944aa47f348" d="M72.69,85.39c0,.22-.07,.42-.2,.59-.13,.17-.3,.32-.5,.45-.2,.13-.41,.27-.63,.41l-2.38,1.48h-10.53l.04-.02c-1.37-.06-1.64-.22-1.64-.22l-.15-.09c-.33-.22-.55-.63-.66-1.25l-.04-.29h-.46v2.3h0v2.15h.46l.04-.27c.07-.45,.19-.8,.35-1.05,.16-.25,.38-.43,.66-.53,.28-.11,.67-.16,1.15-.16h9.92l-11.34,7.3h-1.25v.82h14.96c.54,0,.95,.03,1.21,.09,.26,.06,.47,.2,.62,.43,.15,.22,.25,.59,.32,1.08l.04,.27h.49v-4.46h-.49l-.04,.27c-.06,.49-.17,.85-.32,1.07-.15,.22-.35,.37-.61,.43-.26,.06-.66,.09-1.21,.09h-7.57l10.24-6.22v-4.77h-.49v.1Z"/><g><path class="uuid-b30841d0-8963-474c-8667-b944aa47f348" d="M199.35,90.29h-.48v.87h-16.86v-.69c0-.81,.26-3.6,.77-4.07,.52-.47,.66-.71,1.58-.71h.08v-.4h-3.44l-.06,14.39h3.5v-.46h-.08c-.59,0-.54-.11-.97-.32-.44-.21-.78-.52-1.02-.91-.24-.4-.36-2.73-.36-3.27v-.65h16.86v.93h.48v-4.72Z"/><path class="uuid-b30841d0-8963-474c-8667-b944aa47f348" d="M232.01,49.72c-1.66-2.72-3.65-5.11-5.84-7.41-1.31-1.13-2.62-2.24-3.9-3.35q1.51-1.94,2.34-3.2c.48-1.33,.45-2.27-.25-3.5-.56-.7-1.11-1.41-1.66-2.11-2.37-2.02-4.18-2.87-7.33-3.2-1.39,0-4.91,.35-5.26,.33,.96-1.43,2.49-3.45,1.31-5.11-2.82-2.29-6.4-4.01-9.6-5.72C181.06,6.37,158.12,1.96,135.28,.35c-3.15-.12-6.3-.25-9.42-.35-9.32,0-18.56,.56-27.8,1.69-2.74,.43-5.49,.88-8.23,1.33-3.02,.66-6.04,1.34-9.07,2.01-10.88,2.95-20.93,6.83-30.88,12.09-1.71,.98-3.42,1.96-5.14,2.94-1.13,1.59,.13,3.73,.91,5.19-1.69,0-3.35,0-5.01,.03-2.79,.45-4.53,.9-6.98,2.44-.96,.83-1.91,1.66-2.87,2.52-.83,1.39,1.16,3.78,1.76,4.81,.28,.65,.96,1.81,.96,2.47-3.5,2.82-6.37,5.69-8.86,9.44-1.84,3.1-3.1,6.17-4.1,9.65,.1,1.16,.22,1.46,1.46,1.34,3-1.91,5.59-2.75,9.07-3.22-.13,.48-1.46,3.85-2.8,7.68-.81,3.12-2.44,7.98,1.21,9.8,.55,.05,1.11,.1,1.66,.15,.02,40.75,.05,81.52,.08,122.3q.5,3.27,1.16,6.45c1.81,6.35,3.98,11.64,7.66,17.1,.58,.73,1.16,1.46,1.74,2.22,3.52,4.03,7.5,7.35,12.06,10.2,4.73,2.67,9.67,4.83,14.76,6.7q4.11,1.34,8.64,2.69c8.69,2.37,17.45,4.31,25.64,8.06,1.13,1.39,2.37,2.69,3.65,3.93,5.31,3.9,10.5,4.28,16.27,1.08q1.11-.78,3.4-2.74c3.2,3.83,6.42,5.11,11.18,5.66,1.79-.15,3.5-.4,5.24-.9,2.92-1.21,4.78-2.75,6.85-5.09,.28-.48,.58-.96,.88-1.41,.38-.2,.78-.38,1.18-.55,10.75-3.9,21.94-6.67,32.87-10.05,2.37-.91,4.73-1.81,7.13-2.7,2.87-1.26,5.69-2.69,8.51-4.1q1.41-.86,5.74-3.78c4.76-3.68,8.66-7.83,11.79-12.99,2.9-5.39,4.58-10.95,5.47-17,.1-1.21,.23-2.42,.35-3.63,.03-39.64,.05-79.28,.08-118.92,1.23,.6,1.61,.65,2.85,.1,2.7-4.16,1.36-9.97,.35-14.51-.43-1.16-.86-2.32-1.26-3.45,2.39,1.06,4.66,2.37,6.95,3.68,1.49,.48,2.34,.68,3.12-.78,0-3.43-1.99-7.18-3.45-10.2Zm-11.51-18.71c.81,.86,2.37,2.04,2.37,3.3-.78,1.94-2.57,3.3-3.2,5.34-1.41,3.02-2.87,6.05-4.13,9.14-.68,1.94-1.36,3.88-2.04,5.84-4.43-3.63-11.31-4.13-16.65-5.09-1.28-.33-5.89-1.26-6.42-2.9,2.67,.63,5.19,2.06,7.93,2.22,1.21-.5,1.29-.76,1.49-2.04,2.49-5.92,5.21-11.48,8.36-17.07,4.43-.65,8.46-1.43,12.29,1.26Zm-9.8,24.2s-.05,.05-.05,.1c-2.17-.68-4.46-.96-6.72-.86,.18-.48,.35-.93,.55-1.39,2.27,.45,4.18,1.08,6.22,2.14Zm-2.32,23.6c1.34,.93,2.24,1.43,3.78,1.89,.83,.03,1.66,.08,2.52,.13,.05,36.52,.13,73.03,.2,109.55-.13,1.36-.23,2.72-.33,4.1-1.21,6.67-3.2,12.29-6.85,18.08-.7,.93-1.41,1.89-2.11,2.85-3.43,3.78-6.83,6.8-11.56,8.92-12.24,4.63-24.43,9.34-36.85,13.42q-9.24,2.67-9.67,2.72c-.13-2.29-.78-3.88-2.24-5.64,12.19-3.35,24.4-6.62,36.34-10.75,5.74-2.34,11.89-4.71,16.9-8.46,.83-.75,1.66-1.51,2.52-2.27,3.33-3.93,5.44-7.78,6.8-12.82,.5-2.49,.96-5.01,1.08-7.55q-.08-32.31-.53-114.16Zm2.02-1.06c-2.17-2.17-3.88-6.27-1.61-8.91,1.64-1.26,2.8-1.34,4.86-1.26,1.13,.73,2.54,1.36,2.74,2.82-.25,1.53-1.28,2.74-2.19,3.95,0,1.13,.65,1.51,1.69,1.08,1.61-2.09,3.35-4.28,2.02-6.98-.98-1.33-2.27-2.06-3.68-2.87-2.64-.4-4.53,.08-6.7,1.59-1.59,2.01-2.22,3.78-1.71,6.32,.15,.53,.33,1.05,.5,1.58,.18,38.84,.38,77.7,.58,116.55-.23,4.51-.91,8.64-2.52,12.87-1.49,3.15-3.25,5.72-5.67,8.23q-1.01,.83-1.21,1.08c-4.61,3.3-9.8,5.52-15.01,7.71-5.42,1.89-10.88,3.7-16.34,5.39-7.68,2.09-15.34,4.18-22.99,6.3-.5-.08-1.36-.43-2.62-.76-2.07-.18-3.53-.1-5.57,.58-1.81,1.13-2.95,2.12-3.95,4.06-1.08,3.2-.86,6.57,2.54,8.19,2.7,.63,4.63,.43,6.9-1.08,1.01-1.54,.91-2.77,.45-4.43-.65-1.19-1.61-1.49-2.19-.1,.4,1.49,1.03,2.54-.35,3.53-2.52,.63-4.51,.83-5.77-1.71q-.15-.76-.15-1.79c1.16-6.95,10.63-6.98,12.84-.76q.15,1.26,.15,3.05c-.58,4.05-3.12,6.4-7.15,7.18-.73,.02-1.46,.08-2.19,.13-3.85-.68-6.57-2.19-8.03-6.05-.45-2.11-.56-4.13,.1-6.22,2.49-5.64,7.45-6.02,12.95-7.25,9.54-2.39,18.99-5.11,28.38-8.06,6.83-2.37,13.85-4.41,20.02-8.26,1.84-1.34,3.55-2.82,5.21-4.36,4.53-5.31,6.88-10.78,7.88-17.73,.08-.98,.15-1.96,.25-2.95,.05-40.32,.1-80.64,.15-120.94,.28-.48,.56-.96,.83-1.41,3.22-3.53,7.23-4.03,11.71-3,1.16,.65,2.22,1.43,3.3,2.24,2.19,2.54,2.77,5.42,1.96,8.66-1.76,4.08-6.47,6.09-10.43,3.78ZM110.7,234.8c2.24-.96,3.9-1.19,6.32-.58,2.92,1.28,4.28,4.16,3.43,7.23-1.13,1.53-2.32,1.69-4.18,1.59-2.72-.63-2.49-1.44-1.79-3.85-.15-.78-.98-1.31-1.71-.75-1.36,2.19-1.11,4.58,1.06,6.02,3.55,1.19,6.98,1.03,8.72-2.72,.38-1.76,.33-3.25-.25-4.99-2.64-4.84-7.13-5.97-12.06-3.95-.25-.03-.5-.05-.75-.08-13.8-3.95-27.63-7.73-40.85-13.4-4.61-2.19-9.17-4.33-12.97-7.76-2.82-3.12-4.73-6.25-6.14-10.2-.48-1.96-.98-3.95-1.34-5.94-.13-1.21-.23-2.42-.33-3.63-.03-38.76-.03-77.52-.03-116.25,.33-.68,.68-1.36,1.03-2.04,1.13-4.11,.15-7.36-3.6-9.42-1.24-.4-2.14-.43-3.45-.43l-.3,.08c-3.07,1.13-5.01,3.15-4.33,6.57,.55,1.11,2.22,4.03,3.75,2.49,.35-1.43-.75-1.53-1.56-2.52-.1-.25-.18-.48-.25-.71,0-5.36,7.08-4.83,8.14-.02,0,1.96-.13,3.78-1.59,5.24-3.85,2.04-7.13,1.71-10.07-1.56-2.32-4.43-1.08-8.49,3.1-11.08,3.05-1.08,5.29-1.16,8.49-.25,1.61,.81,2.7,1.48,3.78,2.9,.4,.78,.7,1.51,.93,2.34v117.36q-.1,1.26-.1,5.77c.71,7.81,3.1,14.1,8.67,19.67,.63,.55,1.28,1.11,1.94,1.69,2.02,1.46,4.16,2.72,6.3,3.98,6.02,2.54,12.22,4.63,18.41,6.73,7.98,2.34,15.94,4.73,24.03,6.7,2.82,.63,5.67,1.26,8.44,2.04,1.76,.78,3.2,1.89,4.43,3.35,2.06,3.48,2.04,7.1,.08,10.63-1.66,2.01-3.63,3.3-6.32,3.63-.86,0-1.69,.02-2.52,.05-3.7-.91-6.09-2.29-7.28-6.12-.45-3.25-.13-5.87,2.77-7.78Zm-4.86,3.65c-.08,.73-.15,1.46-.2,2.19h-.18c-11.28-3.2-22.49-6.62-33.5-10.7-4.41-1.71-8.92-3.42-13.25-5.36-1.59-.91-3.07-1.96-4.53-3.02-1.31-1.26-2.62-2.49-3.9-3.73-1.06-1.33-2.12-2.67-3.17-4.01-2.74-4.25-4.71-8.34-6.42-13.12-.81-3.25-1.41-6.22-1.76-9.57,.05-37.73,.1-75.45,.15-113.15,2.32,.28,4.41,.18,6.55-.83,.02,37.93,.05,75.86,.1,113.81,.63,10.22,3.58,18.99,12.27,25.08,15.16,9.09,32.97,13.6,49.84,18.31-1.06,1.51-1.49,2.32-1.99,4.11ZM65.77,40.77c.4-.1,.65-.08,1.08-.05,11.26,2.59,22.54,5.19,33.82,7.78q-.3,1.84-.58,4.86h-2.77c-14.51-.23-29.01-.45-43.49-.68q-.3-1.08-.35-1.54c4.08-.86,8.77-1.74,12.39-3.93,1.21-.93,1.69-1.51,1.69-3-.18-.5-1.08-2.01-1.79-3.45Zm57.95,2.01c.5,.28,.98,.12,1.16-.33,.15-5.26,.68-9.82,3.2-14.53,.13-.05,.25-.1,.4-.15,2.14-1.96,4.41-4.33,7.15-1.84,0,.63,.03,1.26,.05,1.91-.2,.03-.4,.05-.58,.08,0-1.96-2.04-1.86-3.15-.75-2.01,4.03-.5,9.09,1.94,12.59,.43,1.11,.88,2.22,1.34,3.33,1.28,5.42,.48,10.28-1.61,15.34-4.13,0-8.26,.03-12.37,.05-.6-1.23-1.21-2.44-1.81-3.65-.76-2.27-1.18-4.36-1.33-6.75,.15-4.31,1.31-7.91,3.07-11.84,.71-1.36,1.41-2.69,2.12-4.03,.51-1.38,1.89-4.89,.35-5.94-.93-1.49-2.52-3.45-3.88-1.28-.02,.25-.05,.51-.05,.78-.08,0-.15,.03-.23,.05-.86-.86,.35-1.84,1.06-2.22,2.32,0,6.85,.43,6.35,3.7-2.19,3.9-2.9,7.83-3.35,12.22q.08,3.05,.18,3.27Zm28.94-.76c-.75-1.36-1.54-2.72-2.44-3.98-.03-.13-.05-.25-.05-.35,2.95-2.24,5.92-4.48,8.89-6.7,.15-.03,.3-.03,.48-.03,3.57,.81,7.28,1.56,10.78,2.72q-5.69,2.75-17.65,8.34Zm18.79-7.78c.15-.03,.33-.05,.5-.07,4.96,1.64,9.62,3.73,14.3,5.99q-11.53,2.74-31.58,7.33c-.4-1.51-.98-3-1.56-4.46,0-.08,0-.15,.03-.2,6.09-2.87,12.19-5.74,18.31-8.59Zm-13.73-3.45c-2.77,2.09-5.52,4.18-8.26,6.27-1.03-1.21-2.12-2.34-3.25-3.42,0-.68,3.02-4.06,3.68-4.18,2.59,.38,5.21,.78,7.83,1.18v.15Zm-12.37,2.09c-1.46-1.03-2.92-2.14-4.48-3.05q-2.69-1.21-2.69-1.31,5.67,.35,10.2,.73c-.45,1.18-2.17,2.64-3.02,3.63Zm7.68,12.49c1.13,3.65,1.49,6.92,1.49,10.75-.38,4.36-1.71,8.39-3.85,12.19-.63,.86-1.26,1.74-1.86,2.62-.81,0-1.59,.03-2.37,.05,2.22-2.85,3.88-5.74,5.06-9.17,.23-.88,.45-1.76,.68-2.62,.5-4.28,.43-7.68-.58-11.89-1.86-5.39-4.76-9.37-9.24-12.89-3.15-2.12-6.12-3.45-9.85-4.31,.08-.56,.1-2.55,1.13-2.29-.1,.1-.2,.23-.28,.35,.05,.25,.1,.51,.18,.76,.91,.2,1.84,.48,2.75,.1,8.16,2.49,13.6,8.64,16.75,16.35Zm-31.46,147.76c-.1-.28-.2-.4-.02-.66,3.15,0,6.3,0,9.47,.03q.08,.1,.08,.55c-3.17,.03-6.35,.05-9.52,.08Zm8.94,1.54v1.99c-.38,2.32-1.71,6.09-4.31,6.8-.53-.43-1.06-.83-1.56-1.24-1.84-2.49-2.44-4.48-2.44-7.55h8.31Zm-10.23-.96c.63,.73,.68,1.48,.08,2.29-.93,.58-2.27,1.71-3.32,1.91-1.74-1.01-3.45-2.01-5.16-3v-6.12c1.74-.98,3.48-1.96,5.24-2.95h.23c1.71,.96,3.43,1.99,5.06,3.1-.28,.68-.45,1.28-.58,1.99-1.44,.15-2.09,1.43-1.54,2.77Zm-43.02-10.25c-.02-2.07-.05-4.13-.05-6.2,1.71-.98,3.43-1.97,5.16-2.92,.13,.02,.25,.05,.38,.08,1.64,.93,3.27,1.86,4.94,2.79v6.27q-2.34,1.36-5.31,2.92c-1.71-.98-3.42-1.97-5.11-2.95Zm4.61,7.05h-.18c-1.51-.83-4.01-2.27-4.38-4.16,1.49,.83,3,1.69,4.51,2.54,0,.53,.03,1.06,.05,1.61Zm32.31-117.69c.86,2.04,1.33,3.85,1.64,6.05,0,2.97-.25,6.27,1.79,8.69,0,.93-.23,1.24,.25,2.19,0,3.63-1.01,8.01,1.74,10.98-1.89,3.1-2.72,5.52-.48,8.66,.23,.23,.3,.33,.38,.63-1.74,2.87-1.39,5.04,.76,7.58-1.59,2.77-2.47,4.94-.56,7.81,.25,.23,1.31,.96,1.18,1.33-.91,1.39-1.23,2.12-1.59,3.75h-42.46v-57.67h37.35Zm-21.91-1.84c3.38-1.77,6.75-3.53,10.13-5.26,.2,0,2.85,4.66,3.17,5.18-4.43,.03-8.86,.05-13.3,.08Zm16.14-2.62c-.58-.91-1.13-1.81-1.69-2.69-3.27-6.57-3.5-13.25-1.06-20.1,.45-.96,.91-1.89,1.36-2.82,1.99-3.25,4.26-5.69,7.28-7.98,1.79-1.08,3.5-2.01,5.46-2.8,.78-.25,1.59-.48,2.39-.71-2.01,4.11-4.13,8.01-5.09,12.52-.13,.88-.25,1.79-.35,2.69,0,4.76,.98,8.24,3.22,12.42,0,1.26-3.65,2.75-4.68,3.15-2.06,.15-4.05,.48-2.95,2.92,.81,.6,1.89,.73,2.29,1.81-1.86,0-3.95-.53-4.94,1.26,0,1.94,.88,2.04,2.59,2.24,.18,.2,.35,.4,.56,.63-.93,.03-1.84,.05-2.74,.08,.05-.08,.1-.15,.18-.2q-.15-.3-1.84-2.42Zm28.56-23.83c-.23-.86-.45-1.69-.68-2.52-1.44-3.8-4.03-6.72-3.83-10.98,3.07,.81,5.72,1.89,8.46,3.5,.75,.55,1.51,1.11,2.27,1.69,3.98,3.8,6.3,7.5,7.88,12.82,.15,1.03,.33,2.07,.5,3.1,.15,7.13-1.44,13.1-6.22,18.56v.2c-1.01,.03-1.99,.05-2.97,.08,.18-.23,.35-.45,.55-.66,1.94-.3,2.87-1.11,1.91-3.05-1.46-.73-3.02-.53-4.63-.58,1.18-1.41,3.85-1.53,2.37-4.03-.3-.18-.6-.33-.91-.48-.78-.03-1.56-.05-2.32-.05-.98-.53-4.58-2.22-4.36-3.58q.68-1.69,1.36-3.8c.8-3.58,1.11-6.57,.6-10.23Zm-6.87,146.32c-.25,.02-.5,.05-.73,.08,.23-.15,.5-.38,.73-.08Zm-.78-1.49c-1.23,.43-2.39,.93-3.55,1.51-.88,0-1.74,.03-2.59,.05,.2-.88,.53-1.56,.96-2.34,.6-.38,1.21-.75,1.84-1.11q3.4-1.31,3.53-1.28c.18,.8,.45,2.54-.18,3.17Zm.25-5.04c-1.61,1.13-3.6,1.54-5.31,2.57-.73-1.36-.81-2.62-.12-4,1.66-1.51,3.65-1.94,5.61-2.92h.3c.25,1.49,.35,3.02-.48,4.36Zm.23-6.37c-.96,1.39-2.74,1.61-4.23,2.24-.53,.3-1.06,.6-1.56,.91-.73-1.18-1.79-3.83-.73-5.16,.73-.38,1.46-.76,2.22-1.11,1.86-.48,3.45-.81,4.93-2.01,1.03,1.39,.63,4.08-.63,5.14Zm-8.29-35.59c0,.15-.4,.61-1.18,2.01-.71,1.96-.35,3.28,1.03,4.81q-.18,.2-4.41,2.52c-1.76-1.01-3.5-2.01-5.24-3v-6.2c1.74-.98,3.47-1.97,5.21-2.95,1.36,.76,3.65,1.53,4.58,2.79Zm-2.8-10.05c.28,0,.56,.03,.86,.05,.4,.78,.81,1.51,1.41,2.16,0,.65-.63,1.49-.98,2.06q-.33,1.49-.45,1.61c-.28-.23-.55-.45-.81-.68-.03-1.74-.03-3.47-.03-5.21Zm2.22,28.81c-.05,.02-.1,.05-.13,.08-.63-.38-1.26-.73-1.89-1.08v-6.09c.6-.35,1.21-.71,1.81-1.06q.38,1.36,.7,2.09c.78,1.26,.65,1.08-.25,2.32-.55,1.26-.68,2.44-.25,3.75Zm-5.69-23.57q-4.96,2.8-5.34,2.92c-1.71-.98-3.43-1.96-5.11-2.95-.05-1.74-.08-3.47-.1-5.21h10.68c-.05,1.74-.1,3.47-.13,5.24Zm-6.65,5.06c.03,2.06,.05,4.13,.07,6.2-1.81,.98-3.6,1.99-5.39,3-1.74-1.01-3.45-2.02-5.16-3v-6.2c1.76-1.01,3.53-1.99,5.29-2.97,1.71,.98,3.45,1.96,5.19,2.97Zm-7.13-5.06q-4.94,2.8-5.34,2.92c-1.71-.98-3.42-1.96-5.11-2.95-.03-1.74-.05-3.47-.08-5.21h10.65c-.05,1.74-.1,3.47-.13,5.24Zm-6.62,5.06c0,2.06,.03,4.13,.05,6.2-1.81,.98-3.6,1.99-5.39,3-1.74-1.01-3.45-2.02-5.16-3v-6.2c1.76-1.01,3.53-1.99,5.32-2.97,1.71,.98,3.45,1.96,5.19,2.97Zm-7.15-5.06q-5.04,2.85-5.31,2.92c-1.71-.98-3.42-1.96-5.11-2.95-.05-1.74-.08-3.47-.1-5.21h10.65c-.05,1.74-.1,3.47-.13,5.24Zm0,16.29v6.3c-1.74,.98-3.53,2.01-5.31,2.89-1.71-.98-3.42-1.96-5.11-2.92-.02-2.09-.05-4.16-.05-6.22,1.71-.98,3.43-1.96,5.16-2.92,1.84,.73,3.6,1.91,5.31,2.87Zm-3.78,11.76c1.69-.96,3.38-1.91,5.09-2.87,.15-.03,.3-.05,.45-.07,1.69,.98,3.4,1.96,5.11,2.97v6.1c-1.71,.98-3.43,1.96-5.14,2.94-.12,0-.25,.03-.35,.05q-.08-.13-5.16-3.02v-6.09Zm7.1-5.49c0-2.09,0-4.18,.02-6.27,1.66-.96,3.35-1.91,5.04-2.84h.35c1.66,.93,3.35,1.89,5.04,2.84v6.3c-1.69,.93-3.38,1.89-5.04,2.84-.1,0-.2,.03-.3,.05-1.71-.98-3.42-1.96-5.11-2.92Zm6.67,5.49c1.74-.98,3.47-1.97,5.21-2.95h.33c1.69,.98,3.4,1.96,5.11,2.97v6.1c-1.81,.98-3.63,1.99-5.42,3-1.76-1.01-3.5-2.01-5.24-3v-6.12Zm7.05-5.57v-6.15c.86-.48,4.63-3.1,5.46-2.89,1.66,.93,3.35,1.89,5.04,2.84v6.3c-1.74,.98-3.5,2.06-5.34,2.89-1.74-1-3.45-2.01-5.16-3Zm6.72,5.57c1.81-1.03,3.62-2.04,5.44-3.05q2.44,1.36,3.96,2.32c0,2.24,.27,3.32,1.33,5.19-.33,.78-.58,1.79-.76,2.06-1.49,.86-3.12,1.99-4.73,2.59-1.76-1.01-3.5-2.01-5.24-3v-6.12Zm7.13,11.46c.93-.53,1.94-1.34,2.97-1.59,.05,.83-.05,1.26-.05,2.9,.3,1.36,1.18,2.59,1.43,3.86-.6,.86-.65,1.89-.78,2.9h-.18c-1.13-.63-2.27-1.24-3.4-1.84v-6.22Zm9.12-4.26c-1.71,.43-3.15,.8-4.63,1.81-.35-1.41-.25-3.37,.65-4.59,.86-.48,1.74-.96,2.62-1.44,1.41-.5,2.92-1.01,4.21-1.76,.05,.05,.13,.1,.2,.18,.86,2.57-.55,4.86-3.05,5.79Zm2.55-7.93c-.13,.23-.25,.48-.38,.73-1.96,1.26-4.41,1.56-6.27,3.1-.2,0-.4,.02-.6,.05-.86-1.21-1.11-3.78-.23-5.04,1.24-.65,2.29-1.38,3.53-2.07,.98-.35,1.99-.68,3-1.01,1.36-.81,1.56-1.01,1.76-1.03,.43,1.86,.73,3.8-.8,5.26Zm0-6.5c-2.22,1.59-4.99,1.97-7.18,3.75-.88-1.06-1.21-2.37-.91-3.7,.4-.58,.81-1.16,1.21-1.71q2.64-1.39,7.58-3.73c1.51,1.84,.28,3.6-.7,5.39Zm.33-6.8c-2.47,1.18-4.94,2.37-7.4,3.58-1.44-2.12-1.06-3.55,.13-5.67q1.11-.78,2.22-1.44,3.3-1.34,4.05-1.71,1.89-1.41,2.09-1.46c.96,2.34,.08,4.56-1.08,6.7Zm.83-8.41c-1.03,.83-2.09,1.71-3.25,2.36-.93,.33-1.86,.66-2.77,1.01-1.24,.68-2.77,1.76-2.97,1.81-.28-.35-.55-.7-.83-1.03-1.66-3.9,4.28-6.47,6.95-7.36,1.21-.5,2.32-1.18,3.32-1.99,.08,.02,.15,.05,.23,.07,.48,2.12,.35,3.17-.68,5.11Zm.38-6.78q-2.42,1.69-3.02,2.02c-2.24,.83-4.26,1.69-6.27,2.97-1.97-2.09-1.71-4.08,.02-6.22,1.84-1.18,3.55-1.94,5.69-2.47,.5-.23,1.01-.45,1.51-.68q2.21-1.43,2.29-1.41c.65,1.89,.68,3.95-.22,5.79Zm.22-7.56c-1.81,1.46-3.8,2.37-5.99,3.02-.83,.33-1.66,.68-2.47,1.03q-1.28,.81-1.49,.86c-1.61-2.27-1.66-3.38-.38-5.84,1.94-1.94,4.68-2.67,7.25-3.35q1.59-.73,3.58-1.84c.15,.65,.33,1.34,.5,2.02,0,1.56-.3,2.69-1.01,4.1Zm.3-7.81c-2.04,1.51-3.8,2.17-6.22,2.85-1.34,.5-2.67,1.41-4.03,1.82-2.92-2.57-2.44-4.51-.43-7.53,2.54-1.76,5.57-2.29,8.41-3.35,.73-.4,1.91-1.41,2.77-1.41,1.54,2.9,.8,4.81-.5,7.63Zm.91-10.07c-2.27,2.69-5.77,3.15-8.92,4.21q-2.62,1.31-3.07,1.46c-1.86-1.99-1.91-3.65-.55-5.92,2.9-1.91,6.37-2.9,9.62-4.13,.88-.43,2.39-1.48,3.38-1.48,1.01,2.19,.86,3.83-.45,5.87Zm.13-7.41c-1.46,.71-2.92,1.41-4.38,2.12-2.82,.98-5.64,1.96-8.31,3.32-.4-.5-.78-1.01-1.16-1.51-.86-2.62,.1-4.38,1.74-6.45,4.21-1.96,8.69-3.3,12.84-5.37,.08,0,.15,0,.25,.03,.98,2.22,1.23,3.75,.2,6.12-.4,.58-.81,1.16-1.18,1.74Zm1.33-9.72c-1.33,.65-2.67,1.34-4,2.01-2.47,.88-4.94,1.76-7.38,2.67q-2.44,1.18-2.74,1.23c-2.02-2.92-1.49-6.07-1.26-9.47h16.22c0,1.36-.08,2.42-.83,3.55Zm-15.79-4.99c0-.12,.03-.25,.05-.35,5.62-.02,11.26-.02,16.9-.02,.05,.02,.1,.05,.18,.1v.2c-5.72,.03-11.43,.05-17.13,.07Zm.25-1.76c-1.43-1.46-1.51-2.37-1.91-4.36-.08-4.43-.1-8.77-3.1-12.31-.03-.08-.03-.15-.03-.2h27.02q-.05,.2-.96,1.16c-.88,1.76-1.56,3.55-2.04,5.47-.28,2.75-.03,5.67-.75,8.31q-.76,1.46-1.08,1.89c-5.72,0-11.43,.03-17.15,.05Zm-7.91-18.21c-.15-.25-.2-.23-.2-.56,.1-.07,.2-.15,.3-.2,10.78,0,21.56,0,32.36,.02,.23,.15,.23,.23,.23,.51-.08,.05-.15,.1-.23,.15-10.83,.02-21.66,.05-32.46,.07Zm28.08-3.22c-.25,.33-.48,.66-.71,.98-7.48,.02-14.96,.07-22.41,.12-.23-.38-.45-.75-.66-1.11h23.77Zm-25.71-1.41c-.08-.05-.15-.1-.23-.13v-.51c.28-.07,27.93-.07,28.21,0q.08,.1,.08,.4c-.08,.05-.13,.1-.18,.18-9.29,0-18.59,.03-27.88,.05Zm22.89-2.17c-6.02,.02-12.04,.05-18.03,.08,.88-.66,1.71-1.38,2.47-2.14h13.1q1.91,1.69,2.47,2.07Zm-59.61,77.97c1.41,.81,2.82,1.61,4.26,2.42,0,2.04,.03,4.08,.05,6.15-1.46,.83-2.92,1.66-4.36,2.52,0-3.7,.03-7.41,.05-11.08Zm0,22.87c1.43,.8,2.87,1.64,4.31,2.47v6.15c-1.46,.83-2.92,1.66-4.36,2.52,0-3.73,.03-7.43,.05-11.13Zm7.38,26.04c1.74-.98,3.48-1.97,5.24-2.95,1.84,.61,3.73,1.99,5.39,2.95,.02,1.31,.05,2.64,.08,3.98h-.93c-3.25-.33-6.65-.6-9.77-1.59v-2.39Zm6.75-5.51c0-2.09,0-4.18,.02-6.25,1.66-.96,3.35-1.91,5.04-2.85,.15,0,.3,.03,.45,.05,1.64,.93,3.27,1.86,4.94,2.79v6.27q-4.53,2.57-5.34,2.92c-1.71-.98-3.42-1.97-5.11-2.95Zm7.03,5.19q5.06-2.87,5.39-2.97c1.71,.98,3.42,1.96,5.14,2.97v6.17c-.18,.03-.35,.05-.5,.08-2.37-.63-4.76-1.21-7.15-1.74-.98-.03-1.96-.03-2.92-.03,0-1.51,.03-3,.05-4.48Zm6.75-5.19c-.03-2.07-.05-4.13-.05-6.17,1.71-.98,3.43-1.97,5.14-2.95,.13,.02,.25,.05,.4,.08,1.64,.93,3.3,1.86,4.96,2.79v6.27c-1.69,.96-3.38,1.91-5.04,2.87-.1,0-.2,.03-.3,.05-1.71-.98-3.43-1.97-5.11-2.95Zm27.15,10.7c1.08-1.51,.25-3.15-1.01-4.41,.05-.88,.1-1.74,.15-2.6-.15-1.01-.33-1.39-.4-1.99,.81-1.13,1.01-2.67,1.01-4.06-.35-1.64-.53-1.96-.58-2.47,1.48-1.77,1.39-3.88,.8-5.97q-.48-.88-.48-1.08c1.41-1.94,1.23-3.58,.28-5.64-.03-.15-.03-.3-.03-.43,1.26-2.37,1.49-4.46,.33-6.95-.03-.12-.03-.25-.03-.38,1.11-2.34,1.61-3.85,.03-6.05-.03-.1-.03-.18-.03-.25,1.13-2.42,1.91-4.63,1.11-7.25q-.4-.68-.43-.88c.88-1.66,1.11-2.79,1.11-4.71q-.5-1.64-.6-2.34c.48-1.49,.68-2.8,.73-4.38h43.57c0,16.29,.02,32.61,.05,48.93,.35,3.35,.23,6.3-2.44,8.56-3.98,2.49-8.76,2.72-13.37,3-2.77,.05-5.54,.1-8.31,.15-7.83,1.79-15.41,3.68-22.52,7.53,.81-2.22,.96-3.95,1.06-6.35Zm45.53-63.67h-44.07c-.1-.23-.2-.46-.3-.68,1.46-3.02,1.54-4.94,.5-8.21,1.21-2.44,1.84-4.59,1.18-7.33-.28-.5-.91-1.36-.91-1.94,1.26-1.86,1.81-2.82,1.91-5.09-.2-1.08-.55-1.91-1.01-2.9v-.43c1.46-2.19,1.96-3.88,1.69-6.5q-.93-2.34-.93-2.57c1.79-1.69,.81-4.01,1.94-5.94-.03-.38-.05-.76-.08-1.11,1.33-1.33,1.56-3.32,1.84-5.09,.05-3.63,0-6.62,1.79-9.85,12.14-.03,24.28-.05,36.44-.05v57.67Zm-27.45-59.51c1.01-1.64,2.01-3.35,2.92-5.04,.08-.03,.15-.05,.23-.05,3.15,1.66,6.3,3.35,9.44,5.04-4.21,0-8.41,.03-12.59,.05Zm-28.21-45.01h-.4c-.13-.03-.25-.05-.35-.08,.03-.2,.05-.38,.08-.55,.33,.13,.5,.35,.68,.63Zm-.61,2.47c.53-.03,1.06-.03,1.61-.03-.08,.55-.15,1.13-.23,1.72-3.98,1.13-7.23,2.59-10.53,5.14-2.47,2.19-4.15,4.48-5.99,7.23-.48,1.01-.96,2.01-1.41,3.02-1.39,4.61-1.99,8.54-1.28,13.35,.65,2.69,1.51,5.29,2.8,7.76,.93,1.48,1.96,2.9,3.02,4.28-.81,.03-1.61,.05-2.39,.08-.76-1.13-1.51-2.27-2.24-3.4-1.61-3.35-2.8-6.52-3.35-10.2-.08-.73-.13-1.46-.18-2.19,.18-7.2,2.19-12.99,6.75-18.61q1.81-1.81,3.75-3.5c3.17-2.12,5.99-3.63,9.67-4.63Zm-9.04,3.05q-1.66,1.23-2.19,1.54c-1.01-1.18-2.02-2.37-3-3.55,3.47-.33,6.98-.63,10.48-.86-1.84,.86-3.58,1.81-5.29,2.87Zm-2.92,2.32c-.55,.5-1.11,1.03-1.66,1.56q-1.26,1.56-1.64,1.86c-2.77-2.14-5.54-4.28-8.28-6.4,2.72-.55,5.49-.88,8.23-1.21,.55,.68,3.35,3.45,3.35,4.18Zm-3.83,4.21c-.83,1.28-1.69,2.57-2.37,3.95-.1,.03-.2,.08-.28,.13-5.94-2.8-11.86-5.59-17.78-8.36-.03-.05-.05-.1-.08-.15,3.8-.96,7.58-1.84,11.43-2.52,3.02,2.31,6.05,4.63,9.07,6.95Zm-2.9,4.94c-.53,1.51-1.06,3.02-1.58,4.53-.13,.03-.25,.05-.35,.07-11.01-2.57-22.01-5.13-32.99-7.68,5.01-2.32,10.05-4.05,15.29-5.71,.18-.03,.38-.05,.58-.08q17.2,8.06,19.06,8.86Zm-48.08,11.91c-.08-.41-.15-.81-.2-1.19,15.26,.2,30.55,.41,45.84,.61,0,1.59,.45,3.33,.35,4.86-15.49,3.1-30.98,6.19-46.44,9.32v-.76c-.35-4.94-4.25-7.36-8.64-8.44q1.26-.35,6.04-1.26c1.41-.86,2.52-1.56,3.05-3.15ZM118.71,228.6c-10.23-2.27-20.4-4.96-30.4-8.06q-7.96-2.69-15.41-5.37c-5.31-2.31-9.75-4.91-13.55-9.42-2.06-3-3.52-5.79-4.56-9.34-.55-2.87-.83-5.41-1.01-8.31,.05-1.46,.13-2.92,.2-4.36-.1-.02-.2-.05-.3-.08,.1-.02,.2-.05,.3-.05,.02-30.85,.05-61.67,.08-92.5h-.05v-21.64q39.97-8.03,46.77-9.32c.38,1.56,.8,3.12,1.33,4.64-3.98,2.04-7.96,4.08-11.91,6.14-4.83,.03-9.64,.05-14.45,.08-.43,.23-.5,.33-.71,.73-.05,2.23-.09,4.47-.12,6.72l.06,1.41s0,0,0,0c0,.05,0,.1,0,.16h0q-.05,101.66-.13,104.08c.1,.63,.2,1.29,.33,1.94,1.03,3.43,3.8,5.24,6.98,6.52,1.11,.33,2.22,.65,3.32,1,5.09,.78,9.97,1.13,15.11,1.34,4.18,.91,8.33,1.99,12.39,3.38,4.81,1.89,8.94,4.26,13.12,7.28,.78,0,.93-.15,1.43-.76,.65-.48,1.31-.96,1.96-1.41,6.1-3.55,12.11-5.64,18.91-7.48,1.76-.4,3.53-.81,5.29-1.18,6.75-.1,13.73,.12,20.17-2.19,1.74-.88,2.97-1.69,4.16-3.17,1.46-2.57,1.59-4.76,1.34-7.68-.03-33.79-.03-67.58-.03-101.34h0c0-.19,0-.38,0-.56h0s.01-1.59,.01-1.59h0c-.02-2.17-.05-4.32-.07-6.47-.2-.33-.4-.58-.73-.73-4.61-.02-9.22-.05-13.83-.05-3.75-1.99-7.48-3.98-11.2-5.94,0-.75,.4-1.48,.65-2.19,.23-.9,.48-1.79,.73-2.67,15.26,3.05,30.52,6.12,45.79,9.19,.03,6.9,.08,13.8,.13,20.7h-.01l-.04,1.55c.03,31.71,.05,63.42,.08,95.13-.2,4.56-.88,8.69-2.49,12.99-.45,.93-.91,1.89-1.36,2.85-3.05,4.51-6.04,7.58-10.73,10.43-9.62,4.81-20.35,7.68-30.6,10.8q-9.92,2.67-15.36,4.03c-4.86,1.03-8.46,1.56-12.06,5.06-.83,1.08-1.43,2.14-1.54,2.19-1.99-3.58-4.18-5.14-8.01-6.5ZM200.83,68.4h-.25c-15.14-3.07-30.27-6.12-45.41-9.17q.28-2.52,.4-4.94,35.11-.48,46.67-.53c-1.06,2.19-1.84,2.82-.5,4.84,.18,.15,.35,.3,.55,.45,.63,.22,4,.88,6.8,1.59-3.78,1.16-7.93,3.32-8.26,7.76Zm-45.33-15.04c-.05-1.64-.28-3.27-.53-4.88q32.08-7.43,32.76-7.5,2.34,1.33,2.67,1.61c-1.16,1.56-2.7,2.67-2.14,4.66,2.95,4.16,9.57,4.59,14.15,5.39-15.64,.23-31.28,.48-46.92,.73Zm35.69-8.64c0-.4,.48-.83,.7-1.13,.68,0,2.9,1.84,3.63,2.39-.05,.02-.1,.05-.15,.08-1.36-.53-2.77-.98-4.18-1.34ZM51.41,18.64c8.69-4.46,17.35-7.98,26.75-10.73,13.62-3.55,27.3-5.46,41.38-5.79h7.83c1.71,.05,3.43,.1,5.14,.15,26.27,1.84,54.73,6.42,77.16,21.18,0,.48-.1,.83-.33,1.26-4.46,6.42-7.78,13.55-10.83,20.73-.08,.03-.15,.08-.2,.13-13.78-10.7-30.22-15.59-47.3-18.01-4.43-.45-8.86-.83-13.32-1.06q-.13-1.26-.28-1.71c-1.23-1.48-3-2.12-4.91-2.12-1.59,.35-2.52,1.06-3.78,2.02-.07-.03-.15-.05-.22-.08-2.64-3.42-11.33-5.24-11.33,1.11,.08,.28,.15,.58,.23,.88-15.51,.68-30.65,3.6-45.21,9.01-5.14,2.14-10,4.61-14.71,7.63h-.25c-6.8-13.43-7.55-14.76-8.89-17.56-.7-1.16-1.94-2.77-1.94-4.18,1.66-.96,3.32-1.91,5.01-2.87Zm13.47,24.4c-.3,.6-4.91,1.48-5.67,1.59,.78-.5,4.26-3.12,4.96-2.9,.23,.43,.45,.86,.71,1.31Zm-32.26-11.94c.13-.02,.25-.05,.4-.05,3.02-2.85,5.72-3.63,9.82-3.75q3.78,.15,4.38,.25c2.72,5.31,5.44,10.65,8.16,15.99,1.16,2.87,1.21,3.15,4.21,3.15,1.71-.43,3.45-.83,5.19-1.23-3.8,2.04-8.08,2.9-12.29,3.75q-6.22,1.01-7.81,1.16c-1.06,.35-1.86,.83-2.77,1.49-1.97-4.54-3.9-9.04-5.85-13.55-.08-.35-.12-.71-.17-1.06-.68-1.21-1.34-2.64-3.27-6.15Zm19.42,21.68c-2.87,0-5.74,.51-8.61,.58,.38-.38,.83-.63,1.31-.88q3.88-.5,6.4-.93c.18,.03,.35,.05,.55,.08,.1,.38,.23,.76,.35,1.16Zm-20.1,13.62q-1.33,3.5-1.36,3.83h-.25c-2.85-1.61,.61-9.29,1.36-11.41,.68-1.71,1.36-3.4,2.04-5.09-.48-2.92-8.99,.28-10.4,1.03-.02-.07-.02-.15-.02-.23,1.21-3.5,3.07-6.55,5.21-9.54,1.86-2.04,3.8-3.98,6.02-5.64q.1,.05,6.27,14.43c.18,1.06,.35,1.26,1.29,1.71,3.32-.15,6.67-.68,10-.58v.15c-.38,.28-.73,.56-1.08,.83-.45,.18-4.06,.86-6.9,1.51-2.95,.88-5.46,1.89-7.98,3.63-.63,.58-1.26,1.18-1.89,1.79-.81,1.16-1.64,2.32-2.29,3.58ZM220.6,199.69c-1.89,8.64-5.11,15.44-11.26,21.94-2.64,2.37-5.46,4.53-8.41,6.55-1.71,.93-3.4,1.89-5.09,2.84-1.99,.88-3.95,1.79-5.92,2.7-2.44,.88-4.89,1.76-7.3,2.67-11.13,3.62-22.69,6.07-33.6,10.42-1.96,3.22-4.13,5.34-7.81,6.55-1.56,.35-3.02,.5-4.61,.55-2.37-.4-4.31-1.06-6.34-2.37-1.64-1.43-2.65-2.84-3.83-4.66-1.28,1.46-2.67,2.97-4.23,4.11-.88,.48-1.74,.96-2.6,1.43-.78,.23-1.56,.45-2.32,.68-5.77,.73-9.7-2.27-13.05-6.62-3.98-2.22-8.56-3.5-12.92-4.81-3.32-.91-6.65-1.79-9.97-2.67-11.28-3.22-22.59-6.62-31.93-14.03-1.29-1.18-2.57-2.36-3.85-3.52-5.97-6.55-9.34-13.32-11.43-21.94-.28-1.59-.56-3.15-.83-4.71V73.34c1.01,1.59,2.07,2.77,3.68,3.75-.05,37.6-.1,75.2-.15,112.83,.1,1.43,.2,2.9,.33,4.36,1.54,8.44,4.43,15.11,9.34,22.19,3.02,3.52,5.84,6.37,9.64,9.01,.91,.5,1.84,1.01,2.77,1.51,9.64,3.9,19.39,7.48,29.27,10.75,8.97,2.67,17.45,5.04,17.73,5.19,.63,2.57,2.04,4.61,4.23,6.12,4.28,2.32,8.71,2.22,12.84-.2,.66-.55,1.31-1.11,1.99-1.66,.5-.75,1.01-1.48,1.51-2.22,1.69,3.22,4,5.06,7.53,6.02,4.18,.68,8.01-.05,11.06-3.1,1.23-1.56,1.96-3.22,2.42-5.19,10.96-3.1,21.68-6.8,32.36-10.75,5.69-2.22,11.53-4.28,17.13-6.72q2.32-1.39,4.06-2.54,2.06-1.74,3.93-3.53c3.65-3.83,6.47-8.31,8.59-13.12,1.03-2.97,1.99-5.89,2.67-8.99q.35-2.09,.68-5.44c-.02-37.1-.05-74.17-.07-111.24,1.71-.75,3.12-1.64,4.41-3.05,0,38.96,0,77.92,.03,116.91q-.33,3.27-.66,5.46Zm12.39-140.98c-1.41-.8-8.71-5.82-10.4-3.38-.02,.28-.05,.58-.05,.88,.43,.81,.86,1.64,1.31,2.47,1.46,4.51,2.37,8.99,1.54,13.75q-.35,.86-.45,.91c-.81-4.91-2.9-8.69-7.13-11.51-2.87-1.38-5.77-2.57-8.86-3.4-1.86-.4-3.73-.8-5.57-1.18-1.33-.88,2.14-.73,2.32-.73q2.62,.33,4.13,.65c1.49,.43,2.52,.75,4,.75,.28-.18,.58-.35,.88-.53q.18-.45,.5-2.04c1.64-4.99,3.35-9.85,5.87-14.5,.03-.02,.08-.05,.13-.05q2.09,1.74,4.51,3.95c3.75,4.13,6.09,8.56,7.55,13.98-.1-.03-.2-.03-.28-.03Z"/><path class="uuid-b30841d0-8963-474c-8667-b944aa47f348" d="M181.36,80.87c.11,.58,.3,1.15,.56,1.47,.51,.62,.98,1.16,1.86,1.61,.4,.2,2.55,.36,4.28,.45,0,0,1.56,.05,2.7,.08h0c1.44,.03,3.14,.13,4.38-.23,1.42-.42,2.57-1.01,3.45-1.79,1.14-1.01,.85-5.48-.23-6.42-.88-.77-1.8-1.07-3.33-1.26-1.49-.18-3.35-.44-4.88-.44-1.05,0-5.67,.36-6.44,.74-.87,.44-1.34,.98-1.85,1.61-.51,.63-.66,1.96-.66,2.72,.01,.74,.1,1.24,.15,1.46h0Zm2.72-3.17c.84-.39,1.81-.63,2.91-.74,1.1-.1,2.28-.16,3.55-.16,1.44,0,2.69,.05,3.77,.15,1.07,.1,1.99,.35,2.76,.73,.77,.39,1.15,.97,1.15,1.75,0,.6-.23,1.08-.69,1.43-.46,.36-1.07,.62-1.84,.79-.76,.17-1.54,.27-2.34,.31-.8,.04-1.74,.06-2.81,.06s-2.03-.02-2.83-.06c-.8-.04-1.58-.14-2.35-.31-.46-.1-.88-.24-1.23-.41h0s-.04-.03-.04-.03h-.01s-.03-.02-.03-.02l-.05-.03-.05-.03h0s-.02-.01-.02-.01c-.14-.08-.27-.17-.4-.27-.46-.36-.7-.84-.7-1.43,0-.77,.42-1.35,1.26-1.74Z"/></g></svg>