<?xml version="1.0" encoding="UTF-8"?><svg id="Capa_1" xmlns="http://www.w3.org/2000/svg" viewBox="0 0 256 256"><defs><style>.cls-1{fill:#e8335f;}</style></defs><path class="cls-1" d="M128,120c9.48,0,17.98,4.15,23.84,10.7,.1-.89,.16-1.79,.16-2.7,0-13.25-10.74-24-24-24s-24,10.75-24,24c0,.92,.06,1.82,.16,2.7,5.86-6.55,14.35-10.7,23.84-10.7Z"/><rect class="cls-1" x="168" y="168" width="16" height="16"/><path class="cls-1" d="M128,96c9.48,0,17.98,4.15,23.84,10.7,.1-.89,.16-1.79,.16-2.7,0-13.25-10.74-24-24-24s-24,10.75-24,24c0,.92,.06,1.82,.16,2.7,5.86-6.55,14.35-10.7,23.84-10.7Z"/><circle class="cls-1" cx="128" cy="152" r="24" transform="translate(-47.74 59.25) rotate(-22.08)"/><rect class="cls-1" x="168" y="104" width="16" height="16"/><rect class="cls-1" x="168" y="72" width="16" height="16"/><rect class="cls-1" x="168" y="136" width="16" height="16"/><rect class="cls-1" x="72" y="168" width="16" height="16"/><path class="cls-1" d="M128,0C57.31,0,0,57.31,0,128s57.31,128,128,128,128-57.31,128-128S198.69,0,128,0Zm72,200H56V56H200V200Z"/><rect class="cls-1" x="72" y="136" width="16" height="16"/><rect class="cls-1" x="72" y="72" width="16" height="16"/><rect class="cls-1" x="72" y="104" width="16" height="16"/></svg>