<?xml version="1.0" encoding="UTF-8"?><svg id="Capa_1" xmlns="http://www.w3.org/2000/svg" viewBox="0 0 256 256"><defs><style>.cls-1{fill:#e8335f;}</style></defs><path class="cls-1" d="M128,0C57.31,0,0,57.31,0,128s57.31,128,128,128,128-57.31,128-128S198.69,0,128,0Zm-22.63,173.25l-39.6,16.97,16.97-39.6,16.97-16.97,22.63,22.63-16.97,16.97Zm73.54,28.28L54.46,77.09l22.63-22.63,16.97,16.97-11.31,11.31,5.66,5.66,11.31-11.31,11.31,11.31-11.31,11.31,5.66,5.66,11.31-11.31,11.31,11.31-11.31,11.31,5.66,5.66,11.31-11.31,11.31,11.31-11.31,11.31,5.66,5.66,11.31-11.31,11.31,11.31-11.31,11.31,5.66,5.66,11.31-11.31,11.31,11.31-11.31,11.31,5.66,5.66,11.31-11.31,16.97,16.97-22.63,22.63Zm-22.63-79.2l-22.63-22.63,45.25-45.25,22.63,22.63-45.25,45.25Z"/></svg>