<?xml version="1.0" encoding="UTF-8"?><svg id="Capa_1" xmlns="http://www.w3.org/2000/svg" viewBox="0 0 256 256"><defs><style>.cls-1{fill:#e8335f;}</style></defs><path class="cls-1" d="M128,0C57.31,0,0,57.31,0,128s57.31,128,128,128,128-57.31,128-128S198.69,0,128,0Zm37.21,79.93c-.78,0-1.42,0-2.06,0-4.24,0-8.48-.06-12.72,.04-7.48,.17-11.02,3.65-11.2,11.14-.14,5.59-.04,11.19-.03,16.78,0,.22,.1,.44,.19,.82h25.24c-1.11,8.63-2.2,17.06-3.32,25.73h-22.03v65.57h-26.74v-65.71h-21.75v-25.6h21.88c0-4.2-.09-8.2,.02-12.18,.13-4.88,0-9.81,.74-14.61,1.55-10.21,6.73-18.09,16.3-22.64,3.98-1.89,8.21-2.87,12.6-3.11,7.65-.43,15.26,.17,22.87,.83v22.95Z"/></svg>