<?xml version="1.0" encoding="UTF-8"?><svg id="Capa_1" xmlns="http://www.w3.org/2000/svg" viewBox="0 0 256 256"><defs><style>.cls-1{fill:#e8335f;}</style></defs><path class="cls-1" d="M165.82,70.67c-4.97-.99-10.14-1.28-15.23-1.37-12.56-.21-25.13-.17-37.7-.13-7.22,.02-14.45-.07-21.6,1.19-10.93,1.92-18.42,8.85-20.65,19.72-.96,4.69-1.28,9.57-1.38,14.38-.25,11.58-.34,23.17-.21,34.75,.09,8.1,.33,16.23,1.08,24.29,.7,7.49,4.13,13.78,10.49,18.16,4.91,3.38,10.53,4.67,16.35,4.89,10.35,.39,20.71,.55,31.07,.8,0-.07,0-.15,0-.22,3.8,0,7.6,.11,11.39-.02,8.15-.29,16.35-.22,24.42-1.2,10.64-1.3,17.93-7.32,21.15-17.79,1.48-4.8,1.73-9.78,1.79-14.75,.15-12.75,.33-25.51,.22-38.26-.07-7.58-.26-15.21-1.12-22.73-1.33-11.57-8.67-19.42-20.07-21.69Zm-37.75,94.39c-20.38,.07-37.02-16.51-37.09-36.98-.07-20.38,16.58-37.03,37.02-37.03,20.41,0,36.86,16.4,37,36.89,.14,20.36-16.46,37.05-36.92,37.12Zm38.21-66.86c-4.76-.08-8.54-4.07-8.43-8.9,.1-4.71,4.04-8.43,8.82-8.34,4.83,.1,8.53,4,8.41,8.87-.12,4.75-4.01,8.44-8.8,8.36Z"/><path class="cls-1" d="M128.14,104.07c-13.34-.08-24.1,10.6-24.13,23.94-.03,13.27,10.63,23.98,23.9,24.02,13.29,.04,24-10.58,24.06-23.86,.06-13.28-10.56-24.01-23.83-24.09Z"/><path class="cls-1" d="M128,0C57.31,0,0,57.31,0,128s57.31,128,128,128,128-57.31,128-128S198.69,0,128,0Zm71.7,152.2c-.05,5.23-.42,10.53-1.42,15.65-2.69,13.79-10.58,23.55-23.81,28.7-6.38,2.49-13.11,3.15-19.88,3.22-15.19,.15-30.39,.3-45.58,.21-7.49-.04-15.01-.07-22.37-1.86-11.92-2.89-20.78-9.65-26.05-20.82-3.24-6.87-4.23-14.26-4.31-21.76-.16-15.57-.34-31.14-.21-46.7,.05-6.54,.45-13.14,1.4-19.61,1.49-10.08,6.35-18.45,14.59-24.63,7.07-5.3,15.25-7.41,23.9-8.02,3.45-.24,6.91-.39,10.37-.57h43.05c.83,.08,1.67,.15,2.5,.23,5.41,.49,10.91,.5,16.2,1.56,14.01,2.82,23.77,10.95,28.69,24.54,2.38,6.57,2.93,13.44,2.96,20.35,.05,16.51,.13,33.02-.05,49.52Z"/></svg>