<?xml version="1.0" encoding="UTF-8"?><svg id="Capa_1" xmlns="http://www.w3.org/2000/svg" viewBox="0 0 256 256"><defs><style>.cls-1{fill:#e8335f;}</style></defs><path class="cls-1" d="M128,0C57.31,0,0,57.31,0,128s57.31,128,128,128,128-57.31,128-128S198.69,0,128,0Zm-39.37,196.72h-30.69V104.06h30.69v92.66Zm-11.73-105.69c-5.56,.8-10.83,.14-15.26-3.57-5.06-4.22-6.56-9.81-5.13-16.08,1.43-6.24,5.69-9.9,11.77-11.5,3.54-.93,7.13-.87,10.67,.07,7.15,1.89,11.79,8.04,11.75,15.48-.04,8.03-5.71,14.44-13.8,15.6Zm123.09,104.77c0,.29-.05,.58-.08,.96h-30.78v-1.91c0-15.64,.07-31.29-.05-46.93-.03-3.47-.35-7.02-1.2-10.37-2.77-10.86-14.76-15.03-23.86-8.38-4.45,3.25-7.17,7.65-7.27,13.31-.12,6.99-.09,13.99-.1,20.99-.01,10.49,0,20.99,0,31.48v1.83h-30.71V104.1h30.69v12.78c.11,.04,.22,.08,.33,.12,.47-.55,.93-1.1,1.41-1.64,5.26-5.88,11.35-10.57,19.11-12.59,16.54-4.31,33.26,4.56,39.25,20.71,2.18,5.87,3.18,11.98,3.21,18.2,.09,18.04,.05,36.08,.06,54.12Z"/></svg>