<?xml version="1.0" encoding="UTF-8"?><svg id="Capa_1" xmlns="http://www.w3.org/2000/svg" viewBox="0 0 256 256"><defs><style>.cls-1{fill:#e8335f;}</style></defs><path class="cls-1" d="M117.35,69.07c-39.95,7.59-60.77,52.13-40.67,87.45,2.08,3.66,2.51,6.66,1.21,10.52-1.74,5.18-2.96,10.54-4.48,16.09,7.16-1.88,14.02-3.65,20.87-5.5,1.16-.31,2.05-.16,3.08,.46,13.21,7.92,27.45,10.53,42.54,7.53,31.99-6.36,52.72-37.31,46.69-69.41-5.99-31.9-37.28-53.2-69.23-47.14Zm36.6,91.44c-4.6,1.93-9.37,1.48-14.11,.16-17.21-4.79-29.88-15.61-40.03-29.87-3.15-4.43-5.99-9-7.2-14.37-1.74-7.73,.16-14.43,5.84-20.02,1.85-1.82,4.08-2.18,6.75-1.87,3.02-.75,4.5,1.07,5.56,3.81,1.62,4.19,3.38,8.32,5.16,12.45,.62,1.44,.56,2.7-.37,3.94-1.41,1.88-2.76,3.8-4.26,5.61-1.01,1.22-1.1,2.31-.29,3.67,5.83,9.79,13.96,16.87,24.56,21.09,1.46,.58,2.61,.32,3.59-.91,1.75-2.19,3.54-4.34,5.27-6.54,1.27-1.62,2.01-2.02,3.84-1.18,5.04,2.3,10.04,4.7,14.98,7.19,.61,.31,1.16,1.44,1.15,2.17-.11,7.61-2.35,11.25-10.46,14.66Z"/><path class="cls-1" d="M128,0C57.31,0,0,57.31,0,128s57.31,128,128,128,128-57.31,128-128S198.69,0,128,0Zm21.37,195.62c-18.64,5.71-36.73,3.92-54.14-4.84-.67-.34-1.64-.43-2.37-.24-11.66,3-23.3,6.06-34.94,9.11-.47,.12-.94,.21-1.63,.36,1.1-4.04,2.15-7.88,3.19-11.71,2.17-7.95,4.37-15.89,6.48-23.85,.2-.77,.11-1.81-.26-2.5-19.4-35.32-5.8-79.76,30.04-98.07,39.62-20.23,87.77,.11,100.83,42.59,11.52,37.5-9.66,77.65-47.2,89.15Z"/></svg>