<?xml version="1.0" encoding="UTF-8"?><svg id="uuid-dbf43031-49e7-437b-87d1-e19e2f38d911" xmlns="http://www.w3.org/2000/svg" viewBox="0 0 256 256"><defs><style>.uuid-bd7ffb03-5a6a-4098-bdcb-44dcb0e7e751{fill:#e8335f;}.uuid-95349813-6864-41b7-8957-c3c9f864ef69{fill:#fff;}</style></defs><path class="uuid-95349813-6864-41b7-8957-c3c9f864ef69" d="M218.51,218.51c49.99-49.99,49.99-131.03,0-181.02-49.99-49.99-131.03-49.99-181.02,0s-49.99,131.03,0,181.02c49.99,49.99,131.03,49.99,181.02,0Z"/><path class="uuid-bd7ffb03-5a6a-4098-bdcb-44dcb0e7e751" d="M110.35,69.39l-51.43,7.71c-1.68,.25-2.92,1.69-2.92,3.39v41.14c0,1.9,1.54,3.43,3.43,3.43h51.43c1.89,0,3.43-1.53,3.43-3.43v-48.86c0-1-.44-1.94-1.19-2.6-.75-.65-1.76-.93-2.74-.79Zm88.46-12.07c-.75-.65-1.76-.93-2.75-.79l-72,10.8c-1.68,.25-2.92,1.69-2.92,3.39v50.91c0,1.9,1.54,3.43,3.43,3.43h72c1.89,0,3.43-1.53,3.43-3.43V59.92c0-1-.44-1.94-1.19-2.6Zm-87.95,74.6H59.43c-1.89,0-3.43,1.53-3.43,3.43v41.14c0,1.7,1.24,3.14,2.92,3.39l51.43,7.71c.17,.02,.34,.04,.51,.04,.82,0,1.61-.29,2.24-.83,.76-.65,1.19-1.6,1.19-2.6v-48.86c0-1.9-1.54-3.43-3.43-3.43Zm85.71,0H124.57c-1.89,0-3.43,1.53-3.43,3.43v50.91c0,1.7,1.24,3.14,2.92,3.39l72,10.8c.17,.02,.34,.04,.51,.04,.82,0,1.61-.29,2.24-.83,.76-.65,1.19-1.6,1.19-2.6v-61.71c0-1.9-1.54-3.43-3.43-3.43Z"/></svg>