<?xml version="1.0" encoding="UTF-8"?><svg id="Capa_1" xmlns="http://www.w3.org/2000/svg" viewBox="0 0 256 256"><defs><style>.cls-1{fill:#e8335f;}</style></defs><path class="cls-1" d="M113.72,150.24c12.59-7.33,24.96-14.53,37.55-21.86-12.58-7.35-24.99-14.59-37.55-21.93v43.79Z"/><path class="cls-1" d="M128,0C57.31,0,0,57.31,0,128s57.31,128,128,128,128-57.31,128-128S198.69,0,128,0Zm72,136.77c-.07,.5-.16,1-.21,1.51-.78,7.56-1.5,15.12-2.33,22.67-1.02,9.33-8.5,15.16-15.47,15.88-7.08,.74-14.16,1.57-21.26,1.82-12.78,.45-25.57,.68-38.36,.65-15.69-.04-31.39-.27-47-2.23-8.44-1.06-15.09-6.7-16.37-14.51-1.02-6.24-1.81-12.54-2.34-18.84-1.11-13.23-.83-26.45,.81-39.63,.48-3.86,.82-7.8,1.92-11.5,2.29-7.7,7.82-12.1,15.71-12.91,9.36-.96,18.76-1.64,28.15-2,19.11-.73,38.23-.61,57.33,.3,7.33,.35,14.67,1,21.95,1.97,7.27,.96,13.59,7.11,14.57,13.82,.94,6.45,1.61,12.93,2.35,19.41,.25,2.23,.36,4.47,.53,6.71v16.9Z"/></svg>